<svg xmlns="http://www.w3.org/2000/svg" xmlns:xlink="http://www.w3.org/1999/xlink" width="500" zoomAndPan="magnify" viewBox="0 0 375 374.999991" height="500" preserveAspectRatio="xMidYMid meet" version="1.0"><defs><clipPath id="f048a1a02e"><path d="M 187 122 L 239.609375 122 L 239.609375 210.367188 L 187 210.367188 Z M 187 122 " clip-rule="nonzero"/></clipPath><clipPath id="6926bea27e"><path d="M 135.359375 104.617188 L 239.609375 104.617188 L 239.609375 154 L 135.359375 154 Z M 135.359375 104.617188 " clip-rule="nonzero"/></clipPath><clipPath id="38a3387ef8"><path d="M 135.359375 122 L 188 122 L 188 210.367188 L 135.359375 210.367188 Z M 135.359375 122 " clip-rule="nonzero"/></clipPath></defs><g clip-path="url(#f048a1a02e)"><path fill="#ea1e62" d="M 187.496094 210.335938 L 239.621094 179.039062 L 239.621094 122.015625 L 187.496094 153.3125 L 187.496094 210.335938 " fill-opacity="1" fill-rule="nonzero"/></g><g clip-path="url(#6926bea27e)"><path fill="#da1744" d="M 208.082031 104.769531 L 187.496094 116.953125 L 167.132812 104.648438 L 135.367188 122.015625 L 187.496094 153.3125 L 239.621094 122.015625 L 208.082031 104.769531 " fill-opacity="1" fill-rule="nonzero"/></g><g clip-path="url(#38a3387ef8)"><path fill="#ad1038" d="M 187.496094 210.335938 L 135.367188 179.039062 L 135.367188 122.015625 L 187.496094 153.3125 L 187.496094 210.335938 " fill-opacity="1" fill-rule="nonzero"/></g><path fill="#8b1534" d="M 207.972656 141.015625 L 187.496094 153.3125 L 167.015625 141.015625 L 187.496094 129.816406 L 207.972656 141.015625 " fill-opacity="1" fill-rule="nonzero"/><path fill="#da1744" d="M 207.972656 189.953125 L 187.496094 202.246094 L 167.015625 189.953125 L 187.496094 178.753906 L 207.972656 189.953125 " fill-opacity="1" fill-rule="nonzero"/><path fill="#8b1534" d="M 167.015625 141.015625 L 167.015625 189.953125 L 187.496094 178.753906 L 187.496094 129.816406 L 167.015625 141.015625 " fill-opacity="1" fill-rule="nonzero"/><path fill="#ad1038" d="M 207.972656 141.015625 L 207.972656 189.953125 L 187.496094 178.753906 L 187.496094 129.816406 L 207.972656 141.015625 " fill-opacity="1" fill-rule="nonzero"/></svg>