<svg xmlns="http://www.w3.org/2000/svg" xmlns:xlink="http://www.w3.org/1999/xlink" width="500" zoomAndPan="magnify" viewBox="0 0 375 374.999991" height="500" preserveAspectRatio="xMidYMid meet" version="1.0"><defs><clipPath id="864e4c0d3d"><path d="M 23 33 L 375 33 L 375 371.53125 L 23 371.53125 Z M 23 33 " clip-rule="nonzero"/></clipPath></defs><g clip-path="url(#864e4c0d3d)"><path fill="#000000" d="M 31.515625 33.292969 C 24.871094 169.808594 12.117188 320.003906 43.871094 371.53125 C 57.425781 370.734375 374.574219 356.125 374.574219 356.125 Z M 31.515625 33.292969 " fill-opacity="0.098" fill-rule="nonzero"/></g><path fill="#ffff87" d="M 31.515625 33.292969 C 31.515625 33.292969 24.472656 301.015625 51.578125 362.101562 L 374.574219 356.125 C 374.574219 356.125 354.511719 170.605469 359.5625 38.339844 Z M 31.515625 33.292969 " fill-opacity="1" fill-rule="nonzero"/><path fill="#ffd9e0" d="M 82.667969 6.203125 C 82.535156 3.28125 113.492188 25.324219 113.492188 25.324219 L 22.480469 99.425781 L 0.425781 71.40625 C 0.425781 71.40625 83.730469 22.269531 82.667969 6.203125 Z M 82.667969 6.203125 " fill-opacity="0.8" fill-rule="nonzero"/><path fill="#ffe087" d="M 67.652344 84.164062 L 327.488281 79.097656 L 327.539062 81.753906 L 67.707031 86.816406 Z M 67.652344 84.164062 " fill-opacity="1" fill-rule="nonzero"/><path fill="#ffe087" d="M 67.660156 122.253906 L 327.46875 116.167969 L 327.53125 118.824219 L 67.722656 124.910156 Z M 67.660156 122.253906 " fill-opacity="1" fill-rule="nonzero"/><path fill="#ffe087" d="M 67.652344 164.257812 L 327.511719 160.230469 L 327.550781 162.886719 L 67.691406 166.914062 Z M 67.652344 164.257812 " fill-opacity="1" fill-rule="nonzero"/><path fill="#ffe087" d="M 67.65625 201.417969 L 327.40625 201.417969 L 327.40625 204.074219 L 67.65625 204.074219 Z M 67.65625 201.417969 " fill-opacity="1" fill-rule="nonzero"/><path fill="#ffe087" d="M 67.65625 238.46875 L 334.449219 238.46875 L 334.449219 241.125 L 67.65625 241.125 Z M 67.65625 238.46875 " fill-opacity="1" fill-rule="nonzero"/><path fill="#ffe087" d="M 67.65625 280.5625 L 334.449219 280.5625 L 334.449219 283.21875 L 67.65625 283.21875 Z M 67.65625 280.5625 " fill-opacity="1" fill-rule="nonzero"/><path fill="#ffe087" d="M 76.957031 326.378906 L 76.160156 323.855469 C 79.214844 322.792969 291.800781 318.542969 334.316406 317.746094 L 334.316406 320.402344 C 247.421875 322.128906 81.472656 325.582031 76.957031 326.378906 Z M 76.957031 326.378906 " fill-opacity="1" fill-rule="nonzero"/></svg>