<svg xmlns="http://www.w3.org/2000/svg" xmlns:xlink="http://www.w3.org/1999/xlink" width="500" zoomAndPan="magnify" viewBox="0 0 375 374.999991" height="500" preserveAspectRatio="xMidYMid meet" version="1.0"><defs><clipPath id="9a138f8d8c"><path d="M 0 298 L 53 298 L 53 362.933594 L 0 362.933594 Z M 0 298 " clip-rule="nonzero"/></clipPath><clipPath id="881dab397c"><path d="M 238 191 L 374.996094 191 L 374.996094 222 L 238 222 Z M 238 191 " clip-rule="nonzero"/></clipPath></defs><g clip-path="url(#9a138f8d8c)"><path fill="#d6eae8" d="M 3.828125 362.375 C 6.546875 361.589844 30.597656 354.425781 36.351562 344.839844 C 40.128906 338.527344 39.136719 331.0625 38.265625 324.476562 C 37.734375 320.503906 37.246094 316.757812 37.804688 313.742188 C 38.847656 308.214844 46.746094 305.359375 49.699219 304.726562 C 51.320312 304.386719 52.359375 302.792969 52.011719 301.179688 C 51.675781 299.554688 50.082031 298.519531 48.460938 298.859375 C 47.867188 298.984375 33.902344 302.03125 31.90625 312.636719 C 31.152344 316.59375 31.75 321.007812 32.316406 325.269531 C 33.097656 331.152344 33.902344 337.238281 31.203125 341.753906 C 27.777344 347.457031 11.578125 353.894531 2.164062 356.613281 C 0.847656 356.992188 -0.0078125 358.191406 -0.0078125 359.496094 C -0.0078125 359.769531 0.03125 360.050781 0.109375 360.324219 C 0.574219 361.914062 2.238281 362.835938 3.828125 362.375 Z M 3.828125 362.375 " fill-opacity="1" fill-rule="nonzero"/></g><path fill="#20bab6" d="M 196.40625 79.90625 L 180.054688 77.296875 C 183.234375 68.332031 182.726562 59.785156 177.957031 51.808594 L 193.617188 53.277344 C 197.667969 62.035156 198.535156 70.910156 196.40625 79.90625 Z M 196.40625 79.90625 " fill-opacity="1" fill-rule="nonzero"/><path fill="#20bab6" d="M 323.9375 109.234375 L 319.855469 97.839844 C 332.546875 97 343.855469 91.902344 354.144531 83.535156 L 355.195312 99.070312 C 347.757812 106.328125 336.957031 109.234375 323.9375 109.234375 Z M 323.9375 109.234375 " fill-opacity="1" fill-rule="nonzero"/><path fill="#20bab6" d="M 361.4375 263.949219 L 354.625 277.414062 C 348.054688 269.828125 340.195312 265.269531 330.597656 264.96875 L 334.015625 253.632812 C 344.90625 254.054688 354.054688 257.472656 361.4375 263.949219 Z M 361.4375 263.949219 " fill-opacity="1" fill-rule="nonzero"/><path fill="#6fceae" d="M 189.027344 191.554688 L 185.035156 175.480469 C 185.035156 175.480469 191.304688 175.480469 199.375 174.730469 C 207.714844 173.984375 218.007812 172.453125 225.445312 169.304688 C 240.085938 163.15625 253.078125 147.082031 282.714844 141.535156 C 312.355469 135.957031 336.597656 151.25 347.515625 151.070312 C 358.4375 150.890625 366.507812 145.222656 366.507812 145.222656 L 370.496094 161.265625 C 370.496094 161.265625 362.457031 166.933594 351.507812 167.113281 C 340.585938 167.296875 316.375 152 286.707031 157.578125 C 257.066406 163.15625 244.078125 179.199219 229.4375 185.378906 C 224.15625 187.597656 217.375 189.035156 210.925781 189.9375 L 210.925781 189.964844 C 199.527344 191.554688 189.027344 191.554688 189.027344 191.554688 Z M 189.027344 191.554688 " fill-opacity="1" fill-rule="nonzero"/><path fill="#a35da3" d="M 201.386719 145.582031 L 187.796875 136.375 C 187.796875 136.375 202.855469 131.578125 208.796875 118.144531 C 214.734375 104.679688 205.257812 72.679688 221.695312 51.449219 C 238.105469 30.214844 266.097656 36.183594 276.835938 33.035156 C 287.578125 29.855469 293.097656 21.457031 293.097656 21.457031 L 293.097656 43.859375 C 293.097656 43.859375 287.816406 50.457031 278.125 51.328125 C 268.4375 52.167969 244.554688 47.1875 234.445312 63.441406 C 224.304688 79.695312 229.617188 106.058594 224.15625 121.953125 C 218.695312 137.875 201.386719 145.582031 201.386719 145.582031 Z M 201.386719 145.582031 " fill-opacity="1" fill-rule="nonzero"/><g clip-path="url(#881dab397c)"><path fill="#ffc05a" d="M 243.355469 221.996094 L 238.105469 204.660156 C 238.105469 204.660156 263.304688 193.085938 286.765625 191.914062 C 310.257812 190.777344 335.726562 202.800781 349.195312 202.742188 C 362.636719 202.710938 374.996094 196.472656 374.996094 196.472656 L 374.996094 213.027344 C 374.996094 213.027344 362.636719 219.265625 349.195312 219.296875 C 335.726562 219.355469 310.257812 207.332031 286.765625 208.5 C 263.304688 209.640625 243.355469 221.996094 243.355469 221.996094 Z M 243.355469 221.996094 " fill-opacity="1" fill-rule="nonzero"/></g><path fill="#f48ca7" d="M 370.136719 244.15625 C 368.636719 247.996094 362.964844 249.40625 357.445312 247.277344 C 351.925781 245.144531 348.65625 240.289062 350.125 236.417969 C 351.625 232.582031 357.296875 231.171875 362.816406 233.300781 C 368.335938 235.429688 371.636719 240.289062 370.136719 244.15625 Z M 370.136719 244.15625 " fill-opacity="1" fill-rule="nonzero"/><path fill="#f48ca7" d="M 329.847656 286.109375 C 328.375 289.980469 322.675781 291.359375 317.15625 289.230469 C 311.636719 287.101562 308.367188 282.242188 309.867188 278.402344 C 311.335938 274.535156 317.035156 273.15625 322.554688 275.285156 C 328.078125 277.414062 331.347656 282.273438 329.847656 286.109375 Z M 329.847656 286.109375 " fill-opacity="1" fill-rule="nonzero"/><path fill="#1ea6bc" d="M 323.636719 45.78125 C 321.746094 51.386719 317.035156 54.867188 313.105469 53.546875 C 309.207031 52.195312 307.585938 46.589844 309.476562 40.980469 C 311.394531 35.375 316.105469 31.925781 320.007812 33.246094 C 323.9375 34.5625 325.554688 40.203125 323.636719 45.78125 Z M 323.636719 45.78125 " fill-opacity="1" fill-rule="nonzero"/><path fill="#1ea6bc" d="M 285.144531 244.15625 C 283.644531 247.996094 277.976562 249.40625 272.425781 247.277344 C 266.90625 245.144531 263.636719 240.289062 265.136719 236.417969 C 266.636719 232.582031 272.304688 231.171875 277.828125 233.300781 C 283.347656 235.429688 286.617188 240.289062 285.144531 244.15625 Z M 285.144531 244.15625 " fill-opacity="1" fill-rule="nonzero"/><path fill="#6fceae" d="M 179.964844 108.035156 C 178.078125 113.613281 173.335938 117.09375 169.4375 115.773438 C 165.535156 114.425781 163.886719 108.816406 165.804688 103.207031 C 167.695312 97.601562 172.40625 94.152344 176.335938 95.472656 C 180.234375 96.789062 181.886719 102.429688 179.964844 108.035156 Z M 179.964844 108.035156 " fill-opacity="1" fill-rule="nonzero"/><path fill="#6fceae" d="M 331.136719 184.359375 C 329.667969 188.195312 323.964844 189.605469 318.445312 187.476562 C 312.925781 185.347656 309.65625 180.488281 311.15625 176.652344 C 312.625 172.78125 318.328125 171.402344 323.847656 173.53125 C 329.367188 175.660156 332.636719 180.488281 331.136719 184.359375 Z M 331.136719 184.359375 " fill-opacity="1" fill-rule="nonzero"/><path fill="#ffc05a" d="M 276.476562 260.378906 L 271.226562 272.796875 C 263.035156 268.957031 255.597656 266.828125 244.828125 268.117188 L 248.007812 256.511719 C 258.777344 255.222656 268.257812 256.511719 276.476562 260.378906 Z M 276.476562 260.378906 " fill-opacity="1" fill-rule="nonzero"/><path fill="#a35da3" d="M 281.636719 112.085938 C 276.507812 115.054688 270.6875 114.542969 268.617188 110.976562 C 266.546875 107.40625 269.035156 102.097656 274.167969 99.128906 C 279.265625 96.191406 285.117188 96.671875 287.1875 100.269531 C 289.257812 103.839844 286.765625 109.144531 281.636719 112.085938 Z M 281.636719 112.085938 " fill-opacity="1" fill-rule="nonzero"/><path fill="#ffc05a" d="M 214.855469 25.71875 C 212.964844 31.324219 208.257812 34.804688 204.328125 33.484375 C 200.425781 32.132812 198.804688 26.527344 200.695312 20.917969 C 202.585938 15.3125 207.328125 11.863281 211.226562 13.179688 C 215.15625 14.5 216.777344 20.140625 214.855469 25.71875 Z M 214.855469 25.71875 " fill-opacity="1" fill-rule="nonzero"/><path fill="#c43b58" d="M 221.785156 275.074219 C 206.605469 276.84375 182.214844 257.292969 163.554688 227.183594 C 159.835938 221.15625 156.566406 215.128906 153.867188 209.21875 C 143.546875 187.058594 140.304688 166.664062 145.464844 155.75 L 145.527344 155.660156 L 147.925781 152 L 147.984375 151.910156 C 148.828125 150.980469 149.757812 150.203125 150.777344 149.570312 C 161.667969 142.792969 181.285156 153.648438 199.375 174.730469 C 191.304688 175.480469 185.035156 175.480469 185.035156 175.480469 L 189.027344 191.554688 C 189.027344 191.554688 199.527344 191.554688 210.925781 189.964844 C 212.15625 191.796875 213.386719 193.65625 214.585938 195.574219 C 235.734375 229.730469 241.464844 264.460938 227.367188 273.1875 C 225.984375 274.027344 224.457031 274.625 222.804688 274.925781 Z M 221.785156 275.074219 " fill-opacity="1" fill-rule="nonzero"/><path fill="#ffc05a" d="M 83.125 278.765625 C 77.335938 278.765625 72.027344 276.695312 67.917969 273.246094 L 93.835938 233.960938 L 93.867188 233.960938 C 101.546875 237.859375 106.828125 245.867188 106.828125 255.074219 C 106.828125 268.179688 96.207031 278.765625 83.125 278.765625 Z M 83.125 278.765625 " fill-opacity="1" fill-rule="nonzero"/><path fill="#ffc05a" d="M 166.015625 283.710938 L 118.316406 291.089844 C 116.757812 280.113281 126.265625 270.128906 139.464844 268.269531 C 152.667969 266.378906 164.457031 272.734375 166.015625 283.710938 Z M 166.015625 283.710938 " fill-opacity="1" fill-rule="nonzero"/><path fill="#ffc05a" d="M 137.847656 214.167969 C 128.335938 214.167969 119.875 209.640625 114.535156 202.59375 L 145.464844 155.75 C 140.304688 166.664062 143.546875 187.058594 153.867188 209.21875 L 153.835938 209.21875 C 149.15625 212.367188 143.90625 214.167969 137.847656 214.167969 Z M 137.847656 214.167969 " fill-opacity="1" fill-rule="nonzero"/><path fill="#e15c63" d="M 118.316406 291.089844 L 49.078125 301.796875 L 67.917969 273.246094 C 72.027344 276.695312 77.335938 278.765625 83.125 278.765625 C 96.207031 278.765625 106.828125 268.179688 106.828125 255.074219 C 106.828125 245.867188 101.546875 237.859375 93.867188 233.960938 L 93.835938 233.960938 L 114.535156 202.59375 C 119.875 209.640625 128.335938 214.167969 137.847656 214.167969 C 143.90625 214.167969 149.15625 212.367188 153.835938 209.21875 L 153.867188 209.21875 C 156.566406 215.128906 159.835938 221.15625 163.554688 227.183594 C 182.214844 257.292969 206.605469 276.84375 221.785156 275.074219 L 166.015625 283.710938 C 164.457031 272.734375 152.667969 266.378906 139.464844 268.269531 C 126.265625 270.128906 116.757812 280.113281 118.316406 291.089844 Z M 118.316406 291.089844 " fill-opacity="1" fill-rule="nonzero"/><path fill="#1ea6bc" d="M 172.285156 185.289062 C 169.285156 189.875 164.035156 191.765625 160.585938 189.488281 C 157.136719 187.238281 156.746094 181.691406 159.746094 177.101562 C 162.746094 172.511719 167.996094 170.625 171.445312 172.902344 C 174.894531 175.152344 175.285156 180.699219 172.285156 185.289062 Z M 172.285156 185.289062 " fill-opacity="1" fill-rule="nonzero"/><path fill="#ffc05a" d="M 199.167969 228.292969 C 193.078125 230.632812 186.925781 229.402344 185.457031 225.5625 C 183.957031 221.695312 187.707031 216.65625 193.796875 214.316406 C 199.917969 211.976562 206.066406 213.207031 207.535156 217.046875 C 209.035156 220.914062 205.285156 225.921875 199.167969 228.292969 Z M 199.167969 228.292969 " fill-opacity="1" fill-rule="nonzero"/><path fill="#f9b132" d="M 83.125 278.765625 C 77.335938 278.765625 72.027344 276.695312 67.917969 273.246094 L 76.554688 260.171875 C 86.246094 263.078125 95.515625 264.847656 104.277344 265.75 C 100.375 273.484375 92.367188 278.765625 83.125 278.765625 Z M 83.125 278.765625 " fill-opacity="1" fill-rule="nonzero"/><path fill="#d14b62" d="M 118.316406 291.089844 L 49.078125 301.796875 L 67.917969 273.246094 C 72.027344 276.695312 77.335938 278.765625 83.125 278.765625 C 92.367188 278.765625 100.375 273.484375 104.277344 265.75 C 117.117188 267.128906 128.847656 266.679688 139.078125 265.300781 L 139.464844 268.269531 C 126.265625 270.128906 116.757812 280.113281 118.316406 291.089844 Z M 118.316406 291.089844 " fill-opacity="1" fill-rule="nonzero"/><path fill="#f9b132" d="M 166.015625 283.710938 L 118.316406 291.089844 C 116.757812 280.113281 126.265625 270.128906 139.464844 268.269531 C 152.667969 266.378906 164.457031 272.734375 166.015625 283.710938 Z M 166.015625 283.710938 " fill-opacity="1" fill-rule="nonzero"/><path fill="#d14b62" d="M 166.015625 283.710938 C 164.457031 272.734375 152.667969 266.378906 139.464844 268.269531 L 139.078125 265.300781 C 165.714844 261.730469 182.277344 251.984375 182.277344 251.984375 C 196.554688 267.429688 211.347656 276.304688 221.785156 275.074219 Z M 166.015625 283.710938 " fill-opacity="1" fill-rule="nonzero"/></svg>