<svg xmlns="http://www.w3.org/2000/svg" xmlns:xlink="http://www.w3.org/1999/xlink" width="500" zoomAndPan="magnify" viewBox="0 0 375 374.999991" height="500" preserveAspectRatio="xMidYMid meet" version="1.0"><defs><clipPath id="a566a0dfe3"><path d="M 279 0 L 359.238281 0 L 359.238281 80 L 279 80 Z M 279 0 " clip-rule="nonzero"/></clipPath><clipPath id="db09b399b7"><path d="M 53 0 L 359.238281 0 L 359.238281 375 L 53 375 Z M 53 0 " clip-rule="nonzero"/></clipPath><clipPath id="c1ff09cc5f"><path d="M 286 79 L 359.238281 79 L 359.238281 94 L 286 94 Z M 286 79 " clip-rule="nonzero"/></clipPath></defs><g clip-path="url(#a566a0dfe3)"><path fill="#59caff" d="M 279.40625 0 L 359.238281 79.839844 L 279.40625 79.839844 Z M 279.40625 0 " fill-opacity="1" fill-rule="nonzero"/></g><g clip-path="url(#db09b399b7)"><path fill="#0096dc" d="M 359.238281 79.839844 L 359.238281 412.5 L 53.210938 412.5 L 53.210938 0 L 279.40625 0 L 279.40625 79.839844 Z M 359.238281 79.839844 " fill-opacity="1" fill-rule="nonzero"/></g><path fill="#006bc0" d="M 66.515625 53.226562 L 66.515625 372.582031 C 66.515625 373.453125 66.558594 374.320312 66.644531 375.1875 C 66.730469 376.054688 66.855469 376.917969 67.027344 377.773438 C 67.195312 378.628906 67.410156 379.472656 67.660156 380.304688 C 67.914062 381.140625 68.207031 381.960938 68.542969 382.765625 C 68.875 383.570312 69.246094 384.355469 69.65625 385.125 C 70.070312 385.894531 70.515625 386.640625 71 387.367188 C 71.484375 388.089844 72.003906 388.789062 72.554688 389.464844 C 73.109375 390.136719 73.695312 390.78125 74.308594 391.398438 C 74.925781 392.015625 75.570312 392.597656 76.246094 393.152344 C 76.917969 393.707031 77.617188 394.222656 78.34375 394.707031 C 79.066406 395.191406 79.8125 395.640625 80.582031 396.050781 C 81.351562 396.460938 82.136719 396.832031 82.941406 397.167969 C 83.75 397.5 84.566406 397.792969 85.402344 398.046875 C 86.234375 398.300781 87.082031 398.511719 87.933594 398.683594 C 88.789062 398.851562 89.652344 398.980469 90.519531 399.066406 C 91.386719 399.148438 92.253906 399.191406 93.125 399.191406 L 319.320312 399.191406 C 320.191406 399.191406 321.0625 399.148438 321.929688 399.066406 C 322.796875 398.980469 323.65625 398.851562 324.511719 398.683594 C 325.367188 398.511719 326.210938 398.300781 327.046875 398.046875 C 327.878906 397.792969 328.699219 397.5 329.503906 397.167969 C 330.308594 396.832031 331.097656 396.460938 331.867188 396.050781 C 332.632812 395.640625 333.382812 395.191406 334.105469 394.707031 C 334.832031 394.222656 335.53125 393.707031 336.203125 393.152344 C 336.875 392.597656 337.523438 392.015625 338.136719 391.398438 C 338.753906 390.78125 339.339844 390.136719 339.890625 389.464844 C 340.445312 388.789062 340.964844 388.089844 341.449219 387.367188 C 341.933594 386.640625 342.378906 385.894531 342.789062 385.125 C 343.199219 384.355469 343.574219 383.570312 343.90625 382.765625 C 344.238281 381.960938 344.535156 381.140625 344.785156 380.304688 C 345.039062 379.472656 345.25 378.628906 345.421875 377.773438 C 345.589844 376.917969 345.71875 376.054688 345.804688 375.1875 C 345.890625 374.320312 345.933594 373.453125 345.933594 372.582031 L 345.933594 358.457031 C 66.515625 341.238281 66.515625 53.226562 66.515625 53.226562 Z M 66.515625 53.226562 " fill-opacity="1" fill-rule="nonzero"/><g clip-path="url(#c1ff09cc5f)"><path fill="#005599" d="M 286.058594 79.839844 L 359.238281 79.839844 L 359.238281 93.144531 L 286.058594 93.144531 Z M 286.058594 79.839844 " fill-opacity="1" fill-rule="nonzero"/></g><path fill="#006bc0" d="M -0.0117188 19.960938 L 239.488281 19.960938 L 239.488281 126.410156 L -0.0117188 126.410156 Z M -0.0117188 19.960938 " fill-opacity="1" fill-rule="nonzero"/><path fill="#005599" d="M 53.210938 126.410156 L 226.183594 126.410156 L 226.183594 146.371094 L 53.210938 146.371094 Z M 53.210938 126.410156 " fill-opacity="1" fill-rule="nonzero"/><path fill="#ffffff" d="M 159.65625 339.3125 L 153 339.3125 C 151.914062 339.3125 150.828125 339.257812 149.742188 339.148438 C 148.660156 339.042969 147.582031 338.882812 146.515625 338.667969 C 145.445312 338.453125 144.390625 338.191406 143.351562 337.871094 C 142.308594 337.554688 141.285156 337.1875 140.277344 336.769531 C 139.273438 336.355469 138.289062 335.886719 137.328125 335.375 C 136.367188 334.859375 135.4375 334.300781 134.53125 333.695312 C 133.625 333.089844 132.75 332.441406 131.910156 331.75 C 131.066406 331.058594 130.261719 330.328125 129.492188 329.558594 C 128.722656 328.789062 127.992188 327.984375 127.300781 327.140625 C 126.609375 326.300781 125.960938 325.425781 125.355469 324.519531 C 124.75 323.613281 124.191406 322.683594 123.675781 321.722656 C 123.164062 320.761719 122.699219 319.777344 122.28125 318.773438 C 121.863281 317.765625 121.496094 316.742188 121.179688 315.699219 C 120.863281 314.660156 120.597656 313.601562 120.382812 312.535156 C 120.171875 311.46875 120.007812 310.390625 119.902344 309.308594 C 119.792969 308.222656 119.738281 307.136719 119.738281 306.046875 L 119.738281 286.089844 C 119.453125 285.21875 118.035156 284.40625 117.011719 283.804688 C 113.832031 282.101562 110.949219 279.996094 108.363281 277.484375 C 108.054688 277.175781 107.777344 276.839844 107.535156 276.476562 C 107.292969 276.113281 107.085938 275.730469 106.921875 275.328125 C 106.753906 274.925781 106.625 274.507812 106.542969 274.078125 C 106.457031 273.652344 106.414062 273.21875 106.414062 272.78125 C 106.414062 272.34375 106.457031 271.914062 106.542969 271.484375 C 106.625 271.054688 106.753906 270.640625 106.921875 270.238281 C 107.085938 269.832031 107.292969 269.449219 107.535156 269.085938 C 107.777344 268.722656 108.054688 268.386719 108.363281 268.078125 C 110.949219 265.570312 113.832031 263.460938 117.011719 261.757812 C 117.976562 261.25 118.886719 260.652344 119.738281 259.96875 L 119.738281 239.515625 C 119.738281 238.425781 119.792969 237.339844 119.902344 236.257812 C 120.007812 235.171875 120.171875 234.097656 120.382812 233.027344 C 120.597656 231.960938 120.863281 230.90625 121.179688 229.863281 C 121.496094 228.820312 121.863281 227.796875 122.28125 226.792969 C 122.699219 225.785156 123.164062 224.800781 123.675781 223.84375 C 124.191406 222.882812 124.75 221.949219 125.355469 221.042969 C 125.960938 220.136719 126.609375 219.265625 127.300781 218.421875 C 127.992188 217.582031 128.722656 216.773438 129.492188 216.003906 C 130.261719 215.234375 131.066406 214.503906 131.910156 213.8125 C 132.75 213.121094 133.625 212.472656 134.53125 211.867188 C 135.4375 211.261719 136.367188 210.703125 137.328125 210.191406 C 138.289062 209.675781 139.273438 209.210938 140.277344 208.792969 C 141.285156 208.375 142.308594 208.007812 143.351562 207.691406 C 144.390625 207.375 145.445312 207.109375 146.515625 206.894531 C 147.582031 206.683594 148.660156 206.523438 149.742188 206.414062 C 150.828125 206.304688 151.914062 206.25 153 206.25 L 159.65625 206.25 L 159.65625 219.554688 L 153 219.554688 C 152.347656 219.554688 151.695312 219.589844 151.046875 219.652344 C 150.394531 219.714844 149.75 219.8125 149.109375 219.941406 C 148.46875 220.066406 147.832031 220.226562 147.207031 220.414062 C 146.582031 220.605469 145.96875 220.824219 145.363281 221.074219 C 144.761719 221.324219 144.171875 221.605469 143.59375 221.914062 C 143.015625 222.222656 142.457031 222.558594 141.914062 222.921875 C 141.371094 223.285156 140.84375 223.671875 140.339844 224.085938 C 139.835938 224.5 139.351562 224.941406 138.890625 225.402344 C 138.425781 225.863281 137.988281 226.347656 137.574219 226.855469 C 137.160156 227.359375 136.769531 227.882812 136.40625 228.425781 C 136.042969 228.96875 135.707031 229.53125 135.398438 230.105469 C 135.09375 230.683594 134.8125 231.273438 134.5625 231.878906 C 134.3125 232.480469 134.09375 233.097656 133.902344 233.722656 C 133.714844 234.347656 133.554688 234.980469 133.425781 235.621094 C 133.300781 236.261719 133.203125 236.910156 133.140625 237.558594 C 133.074219 238.210938 133.042969 238.863281 133.042969 239.515625 L 133.042969 259.476562 C 133.046875 260.875 132.855469 262.25 132.460938 263.597656 C 132.070312 264.941406 131.496094 266.203125 130.742188 267.382812 C 129.984375 268.5625 129.078125 269.613281 128.019531 270.53125 C 126.960938 271.449219 125.796875 272.199219 124.519531 272.78125 C 125.796875 273.363281 126.960938 274.113281 128.019531 275.03125 C 129.078125 275.949219 129.984375 277 130.742188 278.179688 C 131.496094 279.359375 132.070312 280.621094 132.460938 281.96875 C 132.855469 283.3125 133.046875 284.6875 133.042969 286.089844 L 133.042969 306.046875 C 133.042969 306.703125 133.074219 307.355469 133.140625 308.003906 C 133.203125 308.65625 133.300781 309.300781 133.425781 309.941406 C 133.554688 310.582031 133.714844 311.214844 133.902344 311.84375 C 134.09375 312.46875 134.3125 313.082031 134.5625 313.6875 C 134.8125 314.289062 135.09375 314.878906 135.398438 315.457031 C 135.707031 316.035156 136.042969 316.59375 136.40625 317.136719 C 136.769531 317.679688 137.160156 318.203125 137.574219 318.710938 C 137.988281 319.214844 138.425781 319.699219 138.890625 320.160156 C 139.351562 320.625 139.835938 321.0625 140.339844 321.476562 C 140.84375 321.890625 141.371094 322.28125 141.914062 322.644531 C 142.457031 323.007812 143.015625 323.34375 143.59375 323.652344 C 144.171875 323.960938 144.761719 324.238281 145.363281 324.488281 C 145.96875 324.738281 146.582031 324.957031 147.207031 325.148438 C 147.832031 325.339844 148.46875 325.496094 149.109375 325.625 C 149.75 325.75 150.394531 325.847656 151.046875 325.910156 C 151.695312 325.976562 152.347656 326.007812 153 326.007812 L 159.65625 326.007812 Z M 159.65625 339.3125 " fill-opacity="1" fill-rule="nonzero"/><path fill="#ffffff" d="M 259.445312 339.3125 L 252.792969 339.3125 L 252.792969 326.007812 L 259.445312 326.007812 C 260.101562 326.007812 260.753906 325.976562 261.402344 325.910156 C 262.054688 325.847656 262.699219 325.75 263.339844 325.625 C 263.980469 325.496094 264.613281 325.339844 265.238281 325.148438 C 265.867188 324.957031 266.480469 324.738281 267.082031 324.488281 C 267.6875 324.238281 268.277344 323.960938 268.855469 323.652344 C 269.429688 323.34375 269.992188 323.007812 270.535156 322.644531 C 271.078125 322.28125 271.601562 321.890625 272.109375 321.476562 C 272.613281 321.0625 273.097656 320.625 273.558594 320.160156 C 274.019531 319.699219 274.460938 319.214844 274.875 318.710938 C 275.289062 318.203125 275.679688 317.679688 276.039062 317.136719 C 276.402344 316.59375 276.738281 316.035156 277.046875 315.457031 C 277.355469 314.878906 277.636719 314.289062 277.886719 313.6875 C 278.136719 313.082031 278.355469 312.46875 278.546875 311.84375 C 278.734375 311.214844 278.894531 310.582031 279.019531 309.941406 C 279.148438 309.300781 279.246094 308.65625 279.308594 308.003906 C 279.371094 307.355469 279.40625 306.703125 279.40625 306.046875 L 279.40625 286.089844 C 279.398438 284.6875 279.59375 283.3125 279.984375 281.96875 C 280.378906 280.621094 280.949219 279.359375 281.707031 278.179688 C 282.460938 277 283.367188 275.949219 284.425781 275.03125 C 285.484375 274.113281 286.652344 273.363281 287.925781 272.78125 C 286.652344 272.199219 285.484375 271.449219 284.425781 270.53125 C 283.367188 269.613281 282.460938 268.5625 281.707031 267.382812 C 280.949219 266.203125 280.375 264.941406 279.984375 263.597656 C 279.59375 262.25 279.398438 260.875 279.40625 259.476562 L 279.40625 239.515625 C 279.40625 238.863281 279.371094 238.210938 279.308594 237.558594 C 279.246094 236.910156 279.148438 236.261719 279.019531 235.621094 C 278.894531 234.980469 278.734375 234.347656 278.546875 233.722656 C 278.355469 233.097656 278.136719 232.480469 277.886719 231.878906 C 277.636719 231.273438 277.355469 230.683594 277.046875 230.105469 C 276.738281 229.53125 276.402344 228.96875 276.039062 228.425781 C 275.679688 227.882812 275.289062 227.359375 274.875 226.855469 C 274.460938 226.347656 274.019531 225.863281 273.558594 225.402344 C 273.097656 224.941406 272.613281 224.5 272.109375 224.085938 C 271.601562 223.671875 271.078125 223.285156 270.535156 222.921875 C 269.992188 222.558594 269.429688 222.222656 268.855469 221.914062 C 268.277344 221.605469 267.6875 221.324219 267.082031 221.074219 C 266.480469 220.824219 265.867188 220.605469 265.238281 220.414062 C 264.613281 220.226562 263.980469 220.066406 263.339844 219.941406 C 262.699219 219.8125 262.054688 219.714844 261.402344 219.652344 C 260.753906 219.589844 260.101562 219.554688 259.445312 219.554688 L 252.792969 219.554688 L 252.792969 206.25 L 259.445312 206.25 C 260.535156 206.25 261.621094 206.304688 262.707031 206.414062 C 263.789062 206.523438 264.863281 206.683594 265.933594 206.894531 C 267 207.109375 268.054688 207.375 269.097656 207.691406 C 270.140625 208.007812 271.164062 208.375 272.167969 208.792969 C 273.175781 209.210938 274.160156 209.675781 275.117188 210.191406 C 276.078125 210.703125 277.011719 211.261719 277.917969 211.867188 C 278.824219 212.472656 279.695312 213.121094 280.539062 213.8125 C 281.378906 214.503906 282.1875 215.234375 282.957031 216.003906 C 283.726562 216.773438 284.457031 217.582031 285.148438 218.421875 C 285.839844 219.265625 286.488281 220.136719 287.09375 221.042969 C 287.695312 221.949219 288.257812 222.882812 288.769531 223.84375 C 289.285156 224.800781 289.75 225.785156 290.167969 226.792969 C 290.585938 227.796875 290.953125 228.820312 291.269531 229.863281 C 291.585938 230.90625 291.851562 231.960938 292.0625 233.027344 C 292.277344 234.097656 292.4375 235.171875 292.546875 236.257812 C 292.652344 237.339844 292.707031 238.425781 292.710938 239.515625 L 292.710938 259.476562 C 292.996094 260.347656 294.414062 261.160156 295.4375 261.757812 C 298.613281 263.460938 301.496094 265.570312 304.085938 268.078125 C 304.394531 268.386719 304.671875 268.722656 304.914062 269.085938 C 305.15625 269.449219 305.359375 269.832031 305.527344 270.238281 C 305.695312 270.640625 305.820312 271.054688 305.90625 271.484375 C 305.992188 271.914062 306.035156 272.34375 306.035156 272.78125 C 306.035156 273.21875 305.992188 273.652344 305.90625 274.078125 C 305.820312 274.507812 305.695312 274.925781 305.527344 275.328125 C 305.359375 275.730469 305.15625 276.113281 304.914062 276.476562 C 304.671875 276.839844 304.394531 277.175781 304.085938 277.484375 C 301.496094 279.996094 298.613281 282.101562 295.4375 283.804688 C 294.464844 284.3125 293.546875 284.910156 292.691406 285.597656 L 292.710938 306.046875 C 292.707031 307.136719 292.652344 308.222656 292.546875 309.308594 C 292.4375 310.390625 292.277344 311.46875 292.0625 312.535156 C 291.851562 313.601562 291.585938 314.660156 291.269531 315.699219 C 290.953125 316.742188 290.585938 317.765625 290.167969 318.773438 C 289.75 319.777344 289.285156 320.761719 288.769531 321.722656 C 288.257812 322.683594 287.695312 323.613281 287.09375 324.519531 C 286.488281 325.425781 285.839844 326.300781 285.148438 327.140625 C 284.457031 327.984375 283.726562 328.789062 282.957031 329.558594 C 282.1875 330.328125 281.378906 331.058594 280.539062 331.75 C 279.695312 332.441406 278.824219 333.089844 277.917969 333.695312 C 277.011719 334.300781 276.078125 334.859375 275.117188 335.375 C 274.160156 335.886719 273.175781 336.355469 272.167969 336.769531 C 271.164062 337.1875 270.140625 337.554688 269.097656 337.871094 C 268.054688 338.191406 267 338.453125 265.933594 338.667969 C 264.863281 338.882812 263.789062 339.042969 262.707031 339.148438 C 261.621094 339.257812 260.535156 339.3125 259.445312 339.3125 Z M 259.445312 339.3125 " fill-opacity="1" fill-rule="nonzero"/><path fill="#005599" d="M 279.40625 332.660156 C 277.855469 334.726562 276.085938 336.582031 274.105469 338.238281 C 272.121094 339.890625 269.976562 341.292969 267.667969 342.449219 C 265.355469 343.601562 262.945312 344.476562 260.433594 345.070312 C 257.921875 345.667969 255.375 345.964844 252.792969 345.96875 L 246.140625 345.96875 L 246.140625 332.660156 L 252.792969 332.660156 L 252.792969 339.3125 L 259.445312 339.3125 C 263.046875 339.328125 266.554688 338.765625 269.972656 337.628906 C 273.386719 336.488281 276.53125 334.832031 279.40625 332.660156 Z M 279.40625 332.660156 " fill-opacity="1" fill-rule="nonzero"/><path fill="#005599" d="M 280.800781 279.703125 C 279.824219 281.71875 279.359375 283.847656 279.40625 286.089844 L 279.40625 306.046875 C 279.398438 307.757812 279.179688 309.441406 278.742188 311.09375 C 278.308594 312.75 277.667969 314.320312 276.832031 315.8125 C 275.992188 317.300781 274.980469 318.664062 273.792969 319.894531 C 272.605469 321.125 271.285156 322.1875 269.824219 323.082031 C 271.777344 319.894531 272.753906 316.4375 272.75 312.703125 L 272.75 292.742188 C 272.738281 291.386719 272.914062 290.054688 273.277344 288.75 C 273.640625 287.441406 274.179688 286.210938 274.890625 285.058594 C 275.605469 283.90625 276.464844 282.871094 277.46875 281.960938 C 278.472656 281.050781 279.582031 280.296875 280.800781 279.703125 Z M 280.800781 279.703125 " fill-opacity="1" fill-rule="nonzero"/><path fill="#005599" d="M 298.964844 281.632812 C 298.671875 282.605469 298.160156 283.449219 297.433594 284.160156 C 295.976562 285.609375 294.402344 286.917969 292.710938 288.085938 L 292.710938 285.621094 C 293.550781 284.921875 294.460938 284.324219 295.4375 283.828125 C 296.660156 283.171875 297.835938 282.4375 298.964844 281.632812 Z M 298.964844 281.632812 " fill-opacity="1" fill-rule="nonzero"/><path fill="#005599" d="M 287.921875 272.78125 C 284.992188 274.296875 282.6875 276.46875 281 279.300781 C 279.761719 278.707031 278.628906 277.949219 277.605469 277.03125 C 276.578125 276.117188 275.703125 275.074219 274.972656 273.910156 C 274.242188 272.742188 273.6875 271.5 273.308594 270.175781 C 272.933594 268.851562 272.746094 267.503906 272.75 266.128906 L 272.75 246.167969 C 272.75 245.515625 272.714844 244.863281 272.648438 244.214844 C 272.585938 243.566406 272.488281 242.917969 272.359375 242.28125 C 272.230469 241.640625 272.070312 241.007812 271.878906 240.382812 C 271.6875 239.757812 271.46875 239.144531 271.214844 238.539062 C 270.964844 237.9375 270.6875 237.347656 270.378906 236.773438 C 270.070312 236.195312 269.734375 235.636719 269.371094 235.09375 C 269.007812 234.550781 268.617188 234.027344 268.203125 233.523438 C 267.789062 233.019531 267.351562 232.535156 266.886719 232.074219 C 266.425781 231.609375 265.945312 231.171875 265.4375 230.757812 C 264.933594 230.34375 264.410156 229.953125 263.867188 229.589844 C 263.324219 229.226562 262.765625 228.890625 262.191406 228.585938 C 261.613281 228.277344 261.023438 227.996094 260.421875 227.746094 C 259.820312 227.492188 259.203125 227.273438 258.582031 227.082031 C 257.957031 226.890625 257.324219 226.730469 256.683594 226.601562 C 256.042969 226.472656 255.398438 226.375 254.746094 226.3125 C 254.097656 226.246094 253.445312 226.210938 252.792969 226.210938 L 246.140625 226.210938 L 246.140625 212.902344 L 252.792969 212.902344 L 252.792969 219.554688 L 259.445312 219.554688 C 260.097656 219.558594 260.75 219.59375 261.402344 219.65625 C 262.050781 219.722656 262.695312 219.820312 263.335938 219.949219 C 263.976562 220.078125 264.609375 220.238281 265.234375 220.429688 C 265.859375 220.621094 266.472656 220.839844 267.074219 221.089844 C 267.679688 221.34375 268.265625 221.621094 268.84375 221.929688 C 269.417969 222.238281 269.976562 222.574219 270.519531 222.9375 C 271.0625 223.300781 271.585938 223.691406 272.089844 224.105469 C 272.597656 224.519531 273.078125 224.957031 273.542969 225.417969 C 274.003906 225.882812 274.441406 226.363281 274.855469 226.871094 C 275.269531 227.375 275.660156 227.898438 276.023438 228.441406 C 276.386719 228.984375 276.722656 229.542969 277.03125 230.117188 C 277.339844 230.695312 277.617188 231.285156 277.871094 231.886719 C 278.121094 232.488281 278.339844 233.105469 278.53125 233.730469 C 278.722656 234.351562 278.882812 234.984375 279.011719 235.625 C 279.140625 236.265625 279.238281 236.910156 279.304688 237.5625 C 279.367188 238.210938 279.402344 238.863281 279.40625 239.515625 L 279.40625 259.476562 C 279.402344 260.875 279.59375 262.25 279.988281 263.59375 C 280.378906 264.9375 280.953125 266.199219 281.707031 267.378906 C 282.460938 268.558594 283.367188 269.609375 284.425781 270.527344 C 285.480469 271.449219 286.648438 272.199219 287.921875 272.78125 Z M 287.921875 272.78125 " fill-opacity="1" fill-rule="nonzero"/><path fill="#005599" d="M 153 339.3125 L 153 345.96875 L 146.347656 345.96875 C 145.257812 345.96875 144.171875 345.914062 143.089844 345.808594 C 142.003906 345.699219 140.929688 345.539062 139.859375 345.328125 C 138.792969 345.117188 137.734375 344.851562 136.691406 344.535156 C 135.652344 344.21875 134.625 343.851562 133.621094 343.433594 C 132.613281 343.019531 131.628906 342.554688 130.667969 342.039062 C 129.707031 341.527344 128.773438 340.964844 127.867188 340.359375 C 126.960938 339.753906 126.089844 339.109375 125.246094 338.417969 C 124.40625 337.726562 123.597656 336.996094 122.828125 336.222656 C 122.058594 335.453125 121.328125 334.648438 120.636719 333.804688 C 119.945312 332.960938 119.296875 332.089844 118.691406 331.183594 C 118.085938 330.277344 117.527344 329.34375 117.011719 328.382812 C 116.5 327.421875 116.035156 326.4375 115.617188 325.433594 C 115.199219 324.425781 114.832031 323.402344 114.515625 322.359375 C 114.203125 321.316406 113.9375 320.257812 113.722656 319.191406 C 113.511719 318.121094 113.351562 317.046875 113.246094 315.960938 C 113.136719 314.878906 113.085938 313.789062 113.085938 312.703125 L 113.085938 292.742188 C 112.820312 291.875 111.355469 291.078125 110.359375 290.480469 C 107.191406 288.761719 104.308594 286.652344 101.707031 284.160156 C 101.398438 283.847656 101.125 283.511719 100.882812 283.144531 C 100.640625 282.78125 100.433594 282.394531 100.269531 281.988281 C 100.101562 281.585938 99.976562 281.167969 99.890625 280.738281 C 99.804688 280.308594 99.761719 279.875 99.761719 279.433594 C 99.761719 278.996094 99.804688 278.5625 99.890625 278.132812 C 99.976562 277.703125 100.101562 277.285156 100.269531 276.882812 C 100.433594 276.476562 100.640625 276.089844 100.882812 275.726562 C 101.125 275.359375 101.398438 275.023438 101.707031 274.710938 C 103.292969 273.183594 105 271.808594 106.832031 270.585938 C 106.617188 271.175781 106.484375 271.785156 106.445312 272.410156 C 106.402344 273.039062 106.449219 273.65625 106.585938 274.269531 C 106.71875 274.882812 106.9375 275.464844 107.242188 276.015625 C 107.542969 276.566406 107.917969 277.0625 108.363281 277.507812 C 110.960938 280 113.84375 282.105469 117.011719 283.828125 C 118.007812 284.425781 119.472656 285.222656 119.738281 286.089844 L 119.738281 306.046875 C 119.738281 307.136719 119.792969 308.222656 119.898438 309.308594 C 120.003906 310.394531 120.164062 311.46875 120.378906 312.539062 C 120.589844 313.605469 120.855469 314.664062 121.171875 315.703125 C 121.488281 316.746094 121.851562 317.773438 122.269531 318.777344 C 122.6875 319.785156 123.152344 320.769531 123.664062 321.730469 C 124.179688 322.691406 124.738281 323.625 125.34375 324.53125 C 125.949219 325.4375 126.597656 326.308594 127.289062 327.152344 C 127.980469 327.992188 128.710938 328.800781 129.480469 329.570312 C 130.25 330.339844 131.058594 331.070312 131.898438 331.761719 C 132.742188 332.453125 133.617188 333.101562 134.519531 333.707031 C 135.425781 334.3125 136.359375 334.871094 137.320312 335.386719 C 138.28125 335.898438 139.265625 336.363281 140.273438 336.78125 C 141.277344 337.199219 142.304688 337.566406 143.347656 337.882812 C 144.386719 338.199219 145.445312 338.460938 146.511719 338.675781 C 147.582031 338.886719 148.65625 339.046875 149.742188 339.152344 C 150.824219 339.261719 151.914062 339.3125 153 339.3125 Z M 153 339.3125 " fill-opacity="1" fill-rule="nonzero"/><path fill="#005599" d="M 126.390625 219.554688 C 124.21875 222.429688 122.5625 225.574219 121.425781 228.988281 C 120.285156 232.40625 119.722656 235.914062 119.738281 239.515625 L 119.738281 259.941406 C 118.894531 260.640625 117.988281 261.242188 117.011719 261.738281 C 115.878906 262.402344 114.546875 263.203125 113.085938 264.132812 L 113.085938 246.167969 C 113.085938 243.585938 113.386719 241.039062 113.980469 238.527344 C 114.574219 236.015625 115.449219 233.605469 116.605469 231.296875 C 117.757812 228.988281 119.164062 226.839844 120.816406 224.859375 C 122.46875 222.875 124.328125 221.109375 126.390625 219.554688 Z M 126.390625 219.554688 " fill-opacity="1" fill-rule="nonzero"/><path fill="#005599" d="M 153 219.554688 L 153 226.210938 L 146.347656 226.210938 C 142.613281 226.207031 139.15625 227.183594 135.96875 229.136719 C 136.863281 227.679688 137.925781 226.355469 139.15625 225.167969 C 140.386719 223.980469 141.75 222.96875 143.238281 222.128906 C 144.730469 221.292969 146.300781 220.652344 147.957031 220.21875 C 149.609375 219.78125 151.292969 219.5625 153 219.554688 Z M 153 219.554688 " fill-opacity="1" fill-rule="nonzero"/><path fill="#ffffff" d="M 113.085938 106.453125 C 92.035156 106.453125 86.472656 93.398438 86.472656 86.492188 L 93.125 86.492188 L 99.78125 86.300781 C 99.859375 87.445312 100.84375 93.144531 113.085938 93.144531 C 113.523438 93.144531 113.953125 93.101562 114.382812 93.015625 C 114.8125 92.933594 115.226562 92.804688 115.632812 92.640625 C 116.035156 92.472656 116.417969 92.265625 116.78125 92.023438 C 117.144531 91.78125 117.480469 91.503906 117.789062 91.195312 C 118.097656 90.886719 118.375 90.550781 118.617188 90.1875 C 118.859375 89.824219 119.0625 89.441406 119.230469 89.039062 C 119.398438 88.632812 119.523438 88.21875 119.609375 87.789062 C 119.695312 87.363281 119.738281 86.929688 119.738281 86.492188 C 119.738281 86.054688 119.695312 85.621094 119.609375 85.195312 C 119.523438 84.765625 119.398438 84.351562 119.230469 83.945312 C 119.0625 83.542969 118.859375 83.160156 118.617188 82.796875 C 118.375 82.433594 118.097656 82.097656 117.789062 81.789062 C 117.480469 81.480469 117.144531 81.203125 116.78125 80.960938 C 116.417969 80.71875 116.035156 80.511719 115.632812 80.34375 C 115.226562 80.179688 114.8125 80.050781 114.382812 79.96875 C 113.953125 79.882812 113.523438 79.839844 113.085938 79.839844 L 106.433594 79.839844 C 105.777344 79.839844 105.125 79.808594 104.476562 79.742188 C 103.824219 79.679688 103.179688 79.582031 102.539062 79.457031 C 101.898438 79.328125 101.265625 79.167969 100.640625 78.980469 C 100.011719 78.789062 99.398438 78.570312 98.792969 78.320312 C 98.191406 78.070312 97.601562 77.789062 97.023438 77.480469 C 96.449219 77.175781 95.886719 76.839844 95.34375 76.476562 C 94.800781 76.113281 94.277344 75.722656 93.769531 75.308594 C 93.265625 74.894531 92.78125 74.457031 92.320312 73.992188 C 91.859375 73.53125 91.417969 73.046875 91.003906 72.542969 C 90.589844 72.035156 90.199219 71.511719 89.835938 70.96875 C 89.472656 70.425781 89.140625 69.863281 88.832031 69.289062 C 88.523438 68.710938 88.242188 68.121094 87.992188 67.515625 C 87.742188 66.914062 87.523438 66.300781 87.332031 65.671875 C 87.144531 65.046875 86.984375 64.414062 86.859375 63.773438 C 86.730469 63.132812 86.632812 62.484375 86.570312 61.835938 C 86.507812 61.183594 86.472656 60.53125 86.472656 59.878906 C 86.472656 59.226562 86.507812 58.574219 86.570312 57.921875 C 86.632812 57.273438 86.730469 56.625 86.859375 55.984375 C 86.984375 55.34375 87.144531 54.710938 87.332031 54.085938 C 87.523438 53.460938 87.742188 52.84375 87.992188 52.242188 C 88.242188 51.636719 88.523438 51.046875 88.832031 50.46875 C 89.140625 49.894531 89.472656 49.332031 89.835938 48.789062 C 90.199219 48.246094 90.589844 47.722656 91.003906 47.21875 C 91.417969 46.710938 91.859375 46.226562 92.320312 45.765625 C 92.78125 45.304688 93.265625 44.863281 93.769531 44.449219 C 94.277344 44.035156 94.800781 43.648438 95.34375 43.285156 C 95.886719 42.921875 96.449219 42.585938 97.023438 42.277344 C 97.601562 41.96875 98.191406 41.6875 98.792969 41.4375 C 99.398438 41.1875 100.011719 40.96875 100.640625 40.777344 C 101.265625 40.589844 101.898438 40.429688 102.539062 40.304688 C 103.179688 40.175781 103.824219 40.078125 104.476562 40.015625 C 105.125 39.953125 105.777344 39.917969 106.433594 39.917969 C 127.480469 39.917969 133.042969 52.972656 133.042969 59.878906 L 119.738281 59.878906 C 119.664062 58.929688 118.679688 53.226562 106.433594 53.226562 C 105.996094 53.226562 105.5625 53.269531 105.132812 53.355469 C 104.707031 53.4375 104.289062 53.566406 103.886719 53.734375 C 103.484375 53.898438 103.097656 54.105469 102.734375 54.347656 C 102.375 54.589844 102.035156 54.867188 101.726562 55.175781 C 101.417969 55.484375 101.144531 55.820312 100.902344 56.183594 C 100.65625 56.546875 100.453125 56.929688 100.285156 57.332031 C 100.117188 57.738281 99.992188 58.152344 99.90625 58.582031 C 99.820312 59.011719 99.78125 59.441406 99.78125 59.878906 C 99.78125 60.316406 99.820312 60.75 99.90625 61.175781 C 99.992188 61.605469 100.117188 62.023438 100.285156 62.425781 C 100.453125 62.828125 100.65625 63.210938 100.902344 63.574219 C 101.144531 63.9375 101.417969 64.273438 101.726562 64.582031 C 102.035156 64.894531 102.375 65.167969 102.734375 65.410156 C 103.097656 65.652344 103.484375 65.859375 103.886719 66.027344 C 104.289062 66.191406 104.707031 66.320312 105.132812 66.40625 C 105.5625 66.488281 105.996094 66.53125 106.433594 66.53125 L 113.085938 66.53125 C 113.738281 66.53125 114.390625 66.566406 115.042969 66.628906 C 115.691406 66.691406 116.335938 66.789062 116.980469 66.917969 C 117.621094 67.042969 118.253906 67.203125 118.878906 67.390625 C 119.503906 67.582031 120.117188 67.800781 120.722656 68.050781 C 121.328125 68.300781 121.917969 68.582031 122.492188 68.890625 C 123.070312 69.199219 123.628906 69.53125 124.171875 69.894531 C 124.71875 70.257812 125.242188 70.648438 125.746094 71.0625 C 126.25 71.476562 126.734375 71.917969 127.199219 72.378906 C 127.660156 72.839844 128.097656 73.324219 128.511719 73.828125 C 128.929688 74.335938 129.316406 74.859375 129.679688 75.402344 C 130.042969 75.945312 130.378906 76.507812 130.6875 77.082031 C 130.996094 77.660156 131.273438 78.25 131.523438 78.855469 C 131.773438 79.457031 131.996094 80.074219 132.183594 80.699219 C 132.375 81.324219 132.53125 81.957031 132.660156 82.597656 C 132.789062 83.238281 132.882812 83.886719 132.949219 84.535156 C 133.011719 85.1875 133.042969 85.839844 133.042969 86.492188 C 133.042969 87.144531 133.011719 87.796875 132.949219 88.449219 C 132.882812 89.097656 132.789062 89.746094 132.660156 90.386719 C 132.53125 91.027344 132.375 91.660156 132.183594 92.285156 C 131.996094 92.910156 131.773438 93.527344 131.523438 94.128906 C 131.273438 94.734375 130.996094 95.324219 130.6875 95.902344 C 130.378906 96.476562 130.042969 97.039062 129.679688 97.582031 C 129.316406 98.125 128.929688 98.648438 128.511719 99.15625 C 128.097656 99.660156 127.660156 100.144531 127.199219 100.605469 C 126.734375 101.066406 126.25 101.507812 125.746094 101.921875 C 125.242188 102.335938 124.71875 102.726562 124.171875 103.089844 C 123.628906 103.449219 123.070312 103.785156 122.492188 104.09375 C 121.917969 104.402344 121.328125 104.683594 120.722656 104.933594 C 120.117188 105.183594 119.503906 105.402344 118.878906 105.59375 C 118.253906 105.78125 117.621094 105.941406 116.980469 106.066406 C 116.335938 106.195312 115.691406 106.292969 115.042969 106.355469 C 114.390625 106.417969 113.738281 106.453125 113.085938 106.453125 Z M 113.085938 106.453125 " fill-opacity="1" fill-rule="nonzero"/><path fill="#08449e" d="M 123.464844 103.523438 C 122.570312 104.984375 121.507812 106.304688 120.277344 107.492188 C 119.046875 108.679688 117.683594 109.691406 116.195312 110.53125 C 114.703125 111.371094 113.132812 112.007812 111.476562 112.441406 C 109.824219 112.878906 108.144531 113.101562 106.433594 113.105469 C 85.410156 113.105469 79.820312 100.066406 79.820312 93.144531 L 87.9375 93.144531 C 90.664062 99.53125 97.785156 106.453125 113.085938 106.453125 C 116.820312 106.453125 120.28125 105.476562 123.464844 103.523438 Z M 123.464844 103.523438 " fill-opacity="1" fill-rule="nonzero"/><path fill="#08449e" d="M 119.738281 86.492188 C 119.738281 86.929688 119.695312 87.363281 119.609375 87.789062 C 119.523438 88.21875 119.398438 88.632812 119.230469 89.039062 C 119.0625 89.441406 118.859375 89.824219 118.617188 90.1875 C 118.375 90.550781 118.097656 90.886719 117.789062 91.195312 C 117.480469 91.503906 117.144531 91.78125 116.78125 92.023438 C 116.417969 92.265625 116.035156 92.472656 115.632812 92.640625 C 115.226562 92.804688 114.8125 92.933594 114.382812 93.015625 C 113.953125 93.101562 113.523438 93.144531 113.085938 93.144531 C 113.085938 92.707031 113.042969 92.277344 112.957031 91.847656 C 112.871094 91.417969 112.746094 91.003906 112.578125 90.597656 C 112.410156 90.195312 112.207031 89.8125 111.964844 89.449219 C 111.722656 89.085938 111.445312 88.75 111.136719 88.441406 C 110.828125 88.132812 110.492188 87.855469 110.128906 87.613281 C 109.765625 87.371094 109.382812 87.164062 108.976562 87 C 108.574219 86.832031 108.160156 86.707031 107.730469 86.621094 C 107.300781 86.535156 106.871094 86.492188 106.433594 86.492188 L 99.78125 86.492188 L 99.78125 86.292969 L 97.785156 86.359375 L 97.71875 86.359375 C 96.6875 86.25 95.671875 86.058594 94.671875 85.792969 C 93.671875 85.523438 92.699219 85.179688 91.753906 84.761719 C 90.808594 84.339844 89.898438 83.851562 89.027344 83.289062 C 88.160156 82.730469 87.335938 82.105469 86.5625 81.417969 C 85.789062 80.726562 85.074219 79.984375 84.417969 79.183594 C 83.761719 78.382812 83.171875 77.539062 82.644531 76.644531 C 82.117188 75.753906 81.664062 74.828125 81.285156 73.863281 C 80.902344 72.902344 80.597656 71.914062 80.371094 70.90625 C 80.144531 69.894531 79.996094 68.875 79.925781 67.839844 C 79.855469 66.808594 79.867188 65.777344 79.960938 64.746094 C 80.050781 63.714844 80.222656 62.695312 80.472656 61.691406 C 80.722656 60.6875 81.046875 59.707031 81.449219 58.753906 C 81.851562 57.800781 82.328125 56.882812 82.871094 56.003906 C 83.417969 55.121094 84.027344 54.289062 84.703125 53.503906 C 85.375 52.71875 86.109375 51.992188 86.894531 51.320312 C 87.683594 50.648438 88.519531 50.042969 89.402344 49.5 C 88.480469 51.011719 87.773438 52.621094 87.28125 54.320312 C 86.789062 56.019531 86.523438 57.757812 86.492188 59.527344 C 86.460938 61.296875 86.664062 63.042969 87.097656 64.757812 C 87.527344 66.476562 88.179688 68.105469 89.046875 69.648438 C 89.914062 71.195312 90.964844 72.597656 92.207031 73.863281 C 93.445312 75.125 94.832031 76.203125 96.359375 77.101562 C 97.886719 77.996094 99.503906 78.675781 101.214844 79.140625 C 102.921875 79.605469 104.660156 79.835938 106.433594 79.839844 L 113.085938 79.839844 C 113.523438 79.839844 113.953125 79.882812 114.382812 79.96875 C 114.8125 80.050781 115.226562 80.179688 115.632812 80.34375 C 116.035156 80.511719 116.417969 80.71875 116.78125 80.960938 C 117.144531 81.203125 117.480469 81.480469 117.789062 81.789062 C 118.097656 82.097656 118.375 82.433594 118.617188 82.796875 C 118.859375 83.160156 119.0625 83.542969 119.230469 83.945312 C 119.398438 84.351562 119.523438 84.765625 119.609375 85.195312 C 119.695312 85.621094 119.738281 86.054688 119.738281 86.492188 Z M 119.738281 86.492188 " fill-opacity="1" fill-rule="nonzero"/><path fill="#08449e" d="M 126.390625 66.53125 L 113.085938 66.53125 C 113.019531 65.601562 112.019531 59.878906 99.78125 59.878906 C 99.78125 59.441406 99.820312 59.011719 99.90625 58.582031 C 99.992188 58.152344 100.117188 57.738281 100.285156 57.332031 C 100.453125 56.929688 100.65625 56.546875 100.902344 56.183594 C 101.144531 55.820312 101.417969 55.484375 101.726562 55.175781 C 102.035156 54.867188 102.375 54.589844 102.734375 54.347656 C 103.097656 54.105469 103.484375 53.898438 103.886719 53.734375 C 104.289062 53.566406 104.707031 53.4375 105.132812 53.355469 C 105.5625 53.269531 105.996094 53.226562 106.433594 53.226562 C 118.671875 53.226562 119.671875 58.949219 119.738281 59.878906 L 124.925781 59.878906 C 125.875 61.996094 126.363281 64.214844 126.390625 66.53125 Z M 126.390625 66.53125 " fill-opacity="1" fill-rule="nonzero"/><path fill="#ffffff" d="M 172.960938 106.453125 C 151.910156 106.453125 146.347656 93.398438 146.347656 86.492188 L 153 86.492188 L 159.65625 86.300781 C 159.734375 87.445312 160.71875 93.144531 172.960938 93.144531 C 173.398438 93.144531 173.828125 93.101562 174.257812 93.015625 C 174.6875 92.933594 175.101562 92.804688 175.507812 92.640625 C 175.910156 92.472656 176.292969 92.265625 176.65625 92.023438 C 177.019531 91.78125 177.355469 91.503906 177.664062 91.195312 C 177.972656 90.886719 178.25 90.550781 178.492188 90.1875 C 178.734375 89.824219 178.9375 89.441406 179.105469 89.039062 C 179.273438 88.632812 179.398438 88.21875 179.484375 87.789062 C 179.570312 87.363281 179.613281 86.929688 179.613281 86.492188 C 179.613281 86.054688 179.570312 85.621094 179.484375 85.195312 C 179.398438 84.765625 179.273438 84.351562 179.105469 83.945312 C 178.9375 83.542969 178.734375 83.160156 178.492188 82.796875 C 178.25 82.433594 177.972656 82.097656 177.664062 81.789062 C 177.355469 81.480469 177.019531 81.203125 176.65625 80.960938 C 176.292969 80.71875 175.910156 80.511719 175.507812 80.34375 C 175.101562 80.179688 174.6875 80.050781 174.257812 79.96875 C 173.828125 79.882812 173.398438 79.839844 172.960938 79.839844 L 166.308594 79.839844 C 165.652344 79.839844 165 79.808594 164.351562 79.742188 C 163.699219 79.679688 163.054688 79.582031 162.414062 79.457031 C 161.773438 79.328125 161.140625 79.167969 160.515625 78.980469 C 159.886719 78.789062 159.273438 78.570312 158.667969 78.320312 C 158.066406 78.070312 157.476562 77.789062 156.898438 77.480469 C 156.324219 77.175781 155.761719 76.839844 155.21875 76.476562 C 154.675781 76.113281 154.152344 75.722656 153.644531 75.308594 C 153.140625 74.894531 152.65625 74.457031 152.195312 73.992188 C 151.734375 73.53125 151.292969 73.046875 150.878906 72.542969 C 150.464844 72.035156 150.074219 71.511719 149.710938 70.96875 C 149.347656 70.425781 149.015625 69.863281 148.707031 69.289062 C 148.398438 68.710938 148.117188 68.121094 147.867188 67.515625 C 147.617188 66.914062 147.398438 66.300781 147.207031 65.671875 C 147.019531 65.046875 146.859375 64.414062 146.734375 63.773438 C 146.605469 63.132812 146.507812 62.484375 146.445312 61.835938 C 146.382812 61.183594 146.347656 60.53125 146.347656 59.878906 C 146.347656 59.226562 146.382812 58.574219 146.445312 57.921875 C 146.507812 57.273438 146.605469 56.625 146.734375 55.984375 C 146.859375 55.34375 147.019531 54.710938 147.207031 54.085938 C 147.398438 53.460938 147.617188 52.84375 147.867188 52.242188 C 148.117188 51.636719 148.398438 51.046875 148.707031 50.46875 C 149.015625 49.894531 149.347656 49.332031 149.710938 48.789062 C 150.074219 48.246094 150.464844 47.722656 150.878906 47.21875 C 151.292969 46.710938 151.734375 46.226562 152.195312 45.765625 C 152.65625 45.304688 153.140625 44.863281 153.644531 44.449219 C 154.152344 44.035156 154.675781 43.648438 155.21875 43.285156 C 155.761719 42.921875 156.324219 42.585938 156.898438 42.277344 C 157.476562 41.96875 158.066406 41.6875 158.667969 41.4375 C 159.273438 41.1875 159.886719 40.96875 160.515625 40.777344 C 161.140625 40.589844 161.773438 40.429688 162.414062 40.304688 C 163.054688 40.175781 163.699219 40.078125 164.351562 40.015625 C 165 39.953125 165.652344 39.917969 166.308594 39.917969 C 187.355469 39.917969 192.917969 52.972656 192.917969 59.878906 L 179.613281 59.878906 C 179.539062 58.929688 178.554688 53.226562 166.308594 53.226562 C 165.871094 53.226562 165.4375 53.269531 165.007812 53.355469 C 164.582031 53.4375 164.164062 53.566406 163.761719 53.734375 C 163.359375 53.898438 162.972656 54.105469 162.609375 54.347656 C 162.25 54.589844 161.910156 54.867188 161.601562 55.175781 C 161.292969 55.484375 161.019531 55.820312 160.777344 56.183594 C 160.53125 56.546875 160.328125 56.929688 160.160156 57.332031 C 159.992188 57.738281 159.867188 58.152344 159.78125 58.582031 C 159.695312 59.011719 159.65625 59.441406 159.65625 59.878906 C 159.65625 60.316406 159.695312 60.75 159.78125 61.175781 C 159.867188 61.605469 159.992188 62.023438 160.160156 62.425781 C 160.328125 62.828125 160.53125 63.210938 160.777344 63.574219 C 161.019531 63.9375 161.292969 64.273438 161.601562 64.582031 C 161.910156 64.894531 162.25 65.167969 162.609375 65.410156 C 162.972656 65.652344 163.359375 65.859375 163.761719 66.027344 C 164.164062 66.191406 164.582031 66.320312 165.007812 66.40625 C 165.4375 66.488281 165.871094 66.53125 166.308594 66.53125 L 172.960938 66.53125 C 173.613281 66.53125 174.265625 66.566406 174.917969 66.628906 C 175.566406 66.691406 176.210938 66.789062 176.855469 66.917969 C 177.496094 67.042969 178.128906 67.203125 178.753906 67.390625 C 179.378906 67.582031 179.992188 67.800781 180.597656 68.050781 C 181.203125 68.300781 181.792969 68.582031 182.367188 68.890625 C 182.945312 69.199219 183.503906 69.53125 184.046875 69.894531 C 184.59375 70.257812 185.117188 70.648438 185.621094 71.0625 C 186.125 71.476562 186.609375 71.917969 187.074219 72.378906 C 187.535156 72.839844 187.972656 73.324219 188.386719 73.828125 C 188.804688 74.335938 189.191406 74.859375 189.554688 75.402344 C 189.917969 75.945312 190.253906 76.507812 190.5625 77.082031 C 190.871094 77.660156 191.148438 78.25 191.398438 78.855469 C 191.648438 79.457031 191.871094 80.074219 192.058594 80.699219 C 192.25 81.324219 192.40625 81.957031 192.535156 82.597656 C 192.664062 83.238281 192.757812 83.886719 192.824219 84.535156 C 192.886719 85.1875 192.917969 85.839844 192.917969 86.492188 C 192.917969 87.144531 192.886719 87.796875 192.824219 88.449219 C 192.757812 89.097656 192.664062 89.746094 192.535156 90.386719 C 192.40625 91.027344 192.25 91.660156 192.058594 92.285156 C 191.871094 92.910156 191.648438 93.527344 191.398438 94.128906 C 191.148438 94.734375 190.871094 95.324219 190.5625 95.902344 C 190.253906 96.476562 189.917969 97.039062 189.554688 97.582031 C 189.191406 98.125 188.804688 98.648438 188.386719 99.15625 C 187.972656 99.660156 187.535156 100.144531 187.074219 100.605469 C 186.609375 101.066406 186.125 101.507812 185.621094 101.921875 C 185.117188 102.335938 184.59375 102.726562 184.046875 103.089844 C 183.503906 103.449219 182.945312 103.785156 182.367188 104.09375 C 181.792969 104.402344 181.203125 104.683594 180.597656 104.933594 C 179.992188 105.183594 179.378906 105.402344 178.753906 105.59375 C 178.128906 105.78125 177.496094 105.941406 176.855469 106.066406 C 176.210938 106.195312 175.566406 106.292969 174.917969 106.355469 C 174.265625 106.417969 173.613281 106.453125 172.960938 106.453125 Z M 172.960938 106.453125 " fill-opacity="1" fill-rule="nonzero"/><path fill="#08449e" d="M 183.339844 103.523438 C 182.445312 104.984375 181.382812 106.304688 180.152344 107.492188 C 178.921875 108.679688 177.558594 109.691406 176.070312 110.53125 C 174.578125 111.371094 173.007812 112.007812 171.351562 112.441406 C 169.699219 112.878906 168.019531 113.101562 166.308594 113.105469 C 145.285156 113.105469 139.695312 100.066406 139.695312 93.144531 L 147.8125 93.144531 C 150.539062 99.53125 157.660156 106.453125 172.960938 106.453125 C 176.695312 106.453125 180.15625 105.476562 183.339844 103.523438 Z M 183.339844 103.523438 " fill-opacity="1" fill-rule="nonzero"/><path fill="#08449e" d="M 179.613281 86.492188 C 179.613281 86.929688 179.570312 87.363281 179.484375 87.789062 C 179.398438 88.21875 179.273438 88.632812 179.105469 89.039062 C 178.9375 89.441406 178.734375 89.824219 178.492188 90.1875 C 178.25 90.550781 177.972656 90.886719 177.664062 91.195312 C 177.355469 91.503906 177.019531 91.78125 176.65625 92.023438 C 176.292969 92.265625 175.910156 92.472656 175.507812 92.640625 C 175.101562 92.804688 174.6875 92.933594 174.257812 93.015625 C 173.828125 93.101562 173.398438 93.144531 172.960938 93.144531 C 172.960938 92.707031 172.917969 92.277344 172.832031 91.847656 C 172.746094 91.417969 172.621094 91.003906 172.453125 90.597656 C 172.285156 90.195312 172.082031 89.8125 171.839844 89.449219 C 171.597656 89.085938 171.320312 88.75 171.011719 88.441406 C 170.703125 88.132812 170.367188 87.855469 170.003906 87.613281 C 169.640625 87.371094 169.257812 87.164062 168.851562 87 C 168.449219 86.832031 168.035156 86.707031 167.605469 86.621094 C 167.175781 86.535156 166.746094 86.492188 166.308594 86.492188 L 159.65625 86.492188 L 159.65625 86.292969 L 157.660156 86.359375 L 157.59375 86.359375 C 156.5625 86.25 155.546875 86.058594 154.546875 85.792969 C 153.546875 85.523438 152.574219 85.179688 151.628906 84.761719 C 150.683594 84.339844 149.773438 83.851562 148.902344 83.289062 C 148.035156 82.730469 147.210938 82.105469 146.4375 81.417969 C 145.664062 80.726562 144.949219 79.984375 144.292969 79.183594 C 143.636719 78.382812 143.046875 77.539062 142.519531 76.644531 C 141.992188 75.753906 141.539062 74.828125 141.160156 73.863281 C 140.777344 72.902344 140.472656 71.914062 140.246094 70.90625 C 140.019531 69.894531 139.871094 68.875 139.800781 67.839844 C 139.730469 66.808594 139.742188 65.777344 139.835938 64.746094 C 139.925781 63.714844 140.097656 62.695312 140.347656 61.691406 C 140.597656 60.6875 140.921875 59.707031 141.324219 58.753906 C 141.726562 57.800781 142.203125 56.882812 142.746094 56.003906 C 143.292969 55.121094 143.902344 54.289062 144.578125 53.503906 C 145.25 52.71875 145.984375 51.992188 146.769531 51.320312 C 147.558594 50.648438 148.394531 50.042969 149.277344 49.5 C 148.355469 51.011719 147.648438 52.621094 147.15625 54.320312 C 146.664062 56.019531 146.398438 57.757812 146.367188 59.527344 C 146.335938 61.296875 146.539062 63.042969 146.972656 64.757812 C 147.402344 66.476562 148.054688 68.105469 148.921875 69.648438 C 149.789062 71.195312 150.839844 72.597656 152.082031 73.863281 C 153.320312 75.125 154.707031 76.203125 156.234375 77.101562 C 157.761719 77.996094 159.378906 78.675781 161.089844 79.140625 C 162.796875 79.605469 164.535156 79.835938 166.308594 79.839844 L 172.960938 79.839844 C 173.398438 79.839844 173.828125 79.882812 174.257812 79.96875 C 174.6875 80.050781 175.101562 80.179688 175.507812 80.34375 C 175.910156 80.511719 176.292969 80.71875 176.65625 80.960938 C 177.019531 81.203125 177.355469 81.480469 177.664062 81.789062 C 177.972656 82.097656 178.25 82.433594 178.492188 82.796875 C 178.734375 83.160156 178.9375 83.542969 179.105469 83.945312 C 179.273438 84.351562 179.398438 84.765625 179.484375 85.195312 C 179.570312 85.621094 179.613281 86.054688 179.613281 86.492188 Z M 179.613281 86.492188 " fill-opacity="1" fill-rule="nonzero"/><path fill="#08449e" d="M 186.265625 66.53125 L 172.960938 66.53125 C 172.894531 65.601562 171.894531 59.878906 159.65625 59.878906 C 159.65625 59.441406 159.695312 59.011719 159.78125 58.582031 C 159.867188 58.152344 159.992188 57.738281 160.160156 57.332031 C 160.328125 56.929688 160.53125 56.546875 160.777344 56.183594 C 161.019531 55.820312 161.292969 55.484375 161.601562 55.175781 C 161.910156 54.867188 162.25 54.589844 162.609375 54.347656 C 162.972656 54.105469 163.359375 53.898438 163.761719 53.734375 C 164.164062 53.566406 164.582031 53.4375 165.007812 53.355469 C 165.4375 53.269531 165.871094 53.226562 166.308594 53.226562 C 178.546875 53.226562 179.546875 58.949219 179.613281 59.878906 L 184.800781 59.878906 C 185.75 61.996094 186.238281 64.214844 186.265625 66.53125 Z M 186.265625 66.53125 " fill-opacity="1" fill-rule="nonzero"/><path fill="#f2f2f2" d="M 73.167969 106.453125 L 66.515625 106.453125 C 65.425781 106.453125 64.339844 106.398438 63.253906 106.292969 C 62.171875 106.183594 61.09375 106.023438 60.027344 105.8125 C 58.957031 105.601562 57.902344 105.335938 56.859375 105.019531 C 55.816406 104.703125 54.792969 104.335938 53.785156 103.917969 C 52.78125 103.503906 51.796875 103.039062 50.835938 102.523438 C 49.875 102.011719 48.941406 101.449219 48.035156 100.84375 C 47.128906 100.238281 46.253906 99.59375 45.414062 98.902344 C 44.570312 98.210938 43.765625 97.480469 42.996094 96.707031 C 42.222656 95.9375 41.492188 95.132812 40.800781 94.289062 C 40.109375 93.449219 39.464844 92.574219 38.859375 91.667969 C 38.253906 90.761719 37.691406 89.828125 37.179688 88.867188 C 36.664062 87.90625 36.199219 86.921875 35.785156 85.917969 C 35.367188 84.910156 35 83.886719 34.683594 82.84375 C 34.367188 81.800781 34.101562 80.746094 33.890625 79.675781 C 33.679688 78.605469 33.519531 77.53125 33.410156 76.445312 C 33.304688 75.363281 33.25 74.273438 33.25 73.1875 C 33.25 72.097656 33.304688 71.007812 33.410156 69.925781 C 33.519531 68.839844 33.679688 67.765625 33.890625 66.695312 C 34.101562 65.628906 34.367188 64.570312 34.683594 63.527344 C 35 62.488281 35.367188 61.460938 35.785156 60.457031 C 36.199219 59.449219 36.664062 58.464844 37.179688 57.503906 C 37.691406 56.542969 38.253906 55.609375 38.859375 54.703125 C 39.464844 53.796875 40.109375 52.925781 40.800781 52.082031 C 41.492188 51.238281 42.222656 50.433594 42.996094 49.664062 C 43.765625 48.894531 44.570312 48.160156 45.414062 47.472656 C 46.253906 46.78125 47.128906 46.132812 48.035156 45.527344 C 48.941406 44.921875 49.875 44.359375 50.835938 43.847656 C 51.796875 43.335938 52.78125 42.867188 53.785156 42.453125 C 54.792969 42.035156 55.816406 41.667969 56.859375 41.351562 C 57.902344 41.035156 58.957031 40.769531 60.027344 40.558594 C 61.09375 40.347656 62.171875 40.1875 63.253906 40.078125 C 64.339844 39.972656 65.425781 39.917969 66.515625 39.917969 L 73.167969 39.917969 L 73.167969 53.226562 L 66.515625 53.226562 C 65.863281 53.226562 65.210938 53.257812 64.558594 53.320312 C 63.910156 53.386719 63.261719 53.480469 62.621094 53.609375 C 61.980469 53.738281 61.347656 53.894531 60.722656 54.085938 C 60.097656 54.273438 59.480469 54.496094 58.878906 54.746094 C 58.273438 54.996094 57.683594 55.273438 57.105469 55.582031 C 56.53125 55.890625 55.972656 56.226562 55.425781 56.589844 C 54.882812 56.953125 54.359375 57.34375 53.855469 57.757812 C 53.347656 58.171875 52.863281 58.609375 52.402344 59.070312 C 51.941406 59.535156 51.503906 60.019531 51.085938 60.523438 C 50.671875 61.027344 50.285156 61.554688 49.921875 62.097656 C 49.558594 62.640625 49.222656 63.199219 48.914062 63.777344 C 48.605469 64.351562 48.328125 64.945312 48.078125 65.546875 C 47.828125 66.152344 47.605469 66.765625 47.417969 67.390625 C 47.226562 68.015625 47.070312 68.652344 46.941406 69.292969 C 46.8125 69.933594 46.71875 70.578125 46.652344 71.230469 C 46.589844 71.878906 46.558594 72.53125 46.558594 73.1875 C 46.558594 73.839844 46.589844 74.492188 46.652344 75.140625 C 46.71875 75.792969 46.8125 76.4375 46.941406 77.078125 C 47.070312 77.722656 47.226562 78.355469 47.417969 78.980469 C 47.605469 79.605469 47.828125 80.21875 48.078125 80.824219 C 48.328125 81.429688 48.605469 82.019531 48.914062 82.59375 C 49.222656 83.171875 49.558594 83.730469 49.921875 84.273438 C 50.285156 84.816406 50.671875 85.34375 51.085938 85.847656 C 51.503906 86.351562 51.941406 86.835938 52.402344 87.300781 C 52.863281 87.761719 53.347656 88.199219 53.855469 88.613281 C 54.359375 89.03125 54.882812 89.417969 55.425781 89.78125 C 55.972656 90.144531 56.53125 90.480469 57.105469 90.789062 C 57.683594 91.097656 58.273438 91.375 58.878906 91.625 C 59.480469 91.875 60.097656 92.097656 60.722656 92.285156 C 61.347656 92.476562 61.980469 92.632812 62.621094 92.761719 C 63.261719 92.890625 63.910156 92.984375 64.558594 93.050781 C 65.210938 93.113281 65.863281 93.144531 66.515625 93.144531 L 73.167969 93.144531 Z M 73.167969 106.453125 " fill-opacity="1" fill-rule="nonzero"/><path fill="#08449e" d="M 66.515625 106.453125 L 66.515625 113.105469 L 59.863281 113.105469 C 58.128906 113.105469 56.402344 112.96875 54.691406 112.699219 C 52.976562 112.429688 51.292969 112.027344 49.644531 111.496094 C 47.992188 110.964844 46.394531 110.304688 44.847656 109.523438 C 43.296875 108.738281 41.820312 107.839844 40.414062 106.824219 C 39.007812 105.8125 37.6875 104.695312 36.453125 103.472656 C 35.222656 102.253906 34.089844 100.941406 33.0625 99.546875 C 32.035156 98.148438 31.125 96.679688 30.324219 95.136719 C 29.527344 93.597656 28.855469 92.003906 28.304688 90.359375 C 27.757812 88.710938 27.339844 87.035156 27.054688 85.324219 C 26.769531 83.613281 26.617188 81.890625 26.601562 80.15625 C 26.585938 78.417969 26.703125 76.695312 26.957031 74.976562 C 27.210938 73.261719 27.59375 71.574219 28.113281 69.921875 C 28.628906 68.265625 29.273438 66.660156 30.039062 65.101562 C 30.808594 63.546875 31.695312 62.0625 32.695312 60.644531 C 33.695312 59.226562 34.800781 57.898438 36.007812 56.652344 C 37.21875 55.410156 38.515625 54.265625 39.90625 53.226562 C 37.734375 56.097656 36.078125 59.242188 34.9375 62.660156 C 33.800781 66.074219 33.238281 69.585938 33.25 73.1875 C 33.25 74.273438 33.304688 75.363281 33.410156 76.445312 C 33.519531 77.53125 33.679688 78.605469 33.890625 79.675781 C 34.101562 80.746094 34.367188 81.800781 34.683594 82.84375 C 35 83.886719 35.367188 84.910156 35.785156 85.917969 C 36.199219 86.921875 36.664062 87.90625 37.179688 88.867188 C 37.691406 89.828125 38.253906 90.761719 38.859375 91.667969 C 39.464844 92.574219 40.109375 93.449219 40.800781 94.289062 C 41.492188 95.132812 42.222656 95.9375 42.996094 96.707031 C 43.765625 97.480469 44.570312 98.210938 45.414062 98.902344 C 46.253906 99.59375 47.128906 100.238281 48.035156 100.84375 C 48.941406 101.449219 49.875 102.011719 50.835938 102.523438 C 51.796875 103.039062 52.78125 103.503906 53.785156 103.917969 C 54.792969 104.335938 55.816406 104.703125 56.859375 105.019531 C 57.902344 105.335938 58.957031 105.601562 60.027344 105.8125 C 61.09375 106.023438 62.171875 106.183594 63.253906 106.292969 C 64.339844 106.398438 65.425781 106.453125 66.515625 106.453125 Z M 66.515625 106.453125 " fill-opacity="1" fill-rule="nonzero"/><path fill="#08449e" d="M 66.515625 53.226562 L 66.515625 59.878906 L 59.863281 59.878906 C 56.128906 59.878906 52.667969 60.855469 49.484375 62.808594 C 50.378906 61.347656 51.4375 60.023438 52.671875 58.835938 C 53.902344 57.652344 55.261719 56.636719 56.753906 55.800781 C 58.242188 54.960938 59.816406 54.324219 61.46875 53.886719 C 63.125 53.453125 64.804688 53.230469 66.515625 53.226562 Z M 66.515625 53.226562 " fill-opacity="1" fill-rule="nonzero"/></svg>