<svg xmlns="http://www.w3.org/2000/svg" xmlns:xlink="http://www.w3.org/1999/xlink" width="500" zoomAndPan="magnify" viewBox="0 0 375 374.999991" height="500" preserveAspectRatio="xMidYMid meet" version="1.0"><defs><clipPath id="92eee0c6b1"><path d="M 19.269531 68 L 182.769531 68 L 182.769531 253.652344 L 19.269531 253.652344 Z M 19.269531 68 " clip-rule="nonzero"/></clipPath><clipPath id="e6adc5f0fc"><path d="M 34 23.402344 L 65 23.402344 L 65 55 L 34 55 Z M 34 23.402344 " clip-rule="nonzero"/></clipPath><clipPath id="96ec088111"><path d="M 69 23.402344 L 99 23.402344 L 99 55 L 69 55 Z M 69 23.402344 " clip-rule="nonzero"/></clipPath><clipPath id="6ed81a0bc7"><path d="M 102 23.402344 L 138 23.402344 L 138 55 L 102 55 Z M 102 23.402344 " clip-rule="nonzero"/></clipPath><clipPath id="f71c7bf496"><path d="M 142 23.402344 L 168 23.402344 L 168 55 L 142 55 Z M 142 23.402344 " clip-rule="nonzero"/></clipPath><clipPath id="ba4d152ace"><path d="M 190.433594 68 L 353.933594 68 L 353.933594 253.652344 L 190.433594 253.652344 Z M 190.433594 68 " clip-rule="nonzero"/></clipPath><clipPath id="bdd782e2c5"><path d="M 228 23.402344 L 254 23.402344 L 254 55 L 228 55 Z M 228 23.402344 " clip-rule="nonzero"/></clipPath><clipPath id="06608fa3fd"><path d="M 258 23.402344 L 284 23.402344 L 284 55 L 258 55 Z M 258 23.402344 " clip-rule="nonzero"/></clipPath><clipPath id="6298e607d4"><path d="M 288 23.402344 L 314 23.402344 L 314 55 L 288 55 Z M 288 23.402344 " clip-rule="nonzero"/></clipPath></defs><g clip-path="url(#92eee0c6b1)"><path fill="#e44d26" d="M 182.722656 68.652344 L 167.84375 235.125 L 100.949219 253.644531 L 34.242188 235.152344 L 19.378906 68.652344 L 182.71875 68.648438 L 182.726562 68.648438 Z M 182.722656 68.652344 " fill-opacity="1" fill-rule="nonzero"/></g><path fill="#f16529" d="M 101.050781 239.488281 L 155.105469 224.527344 L 167.824219 82.265625 L 101.050781 82.265625 Z M 101.050781 239.488281 " fill-opacity="1" fill-rule="nonzero"/><path fill="#ebebeb" d="M 72.125 123.105469 L 101.050781 123.105469 L 101.050781 102.683594 L 49.773438 102.683594 L 50.261719 108.160156 L 55.289062 164.4375 L 101.050781 164.4375 L 101.050781 144.019531 L 73.992188 144.019531 Z M 72.125 123.105469 " fill-opacity="1" fill-rule="nonzero"/><path fill="#ebebeb" d="M 76.730469 174.648438 L 56.203125 174.648438 L 59.070312 206.714844 L 100.957031 218.324219 L 101.050781 218.300781 L 101.050781 197.050781 L 100.960938 197.078125 L 78.1875 190.933594 Z M 76.730469 174.648438 " fill-opacity="1" fill-rule="nonzero"/><g clip-path="url(#e6adc5f0fc)"><path fill="#000000" d="M 34.574219 23.402344 L 44.96875 23.402344 L 44.96875 33.65625 L 54.472656 33.65625 L 54.472656 23.402344 L 64.867188 23.402344 L 64.867188 54.449219 L 54.476562 54.449219 L 54.476562 44.054688 L 44.96875 44.054688 L 44.96875 54.449219 L 34.574219 54.449219 Z M 34.574219 23.402344 " fill-opacity="1" fill-rule="nonzero"/></g><g clip-path="url(#96ec088111)"><path fill="#000000" d="M 78.535156 33.699219 L 69.382812 33.699219 L 69.382812 23.402344 L 98.082031 23.402344 L 98.082031 33.699219 L 88.925781 33.699219 L 88.925781 54.449219 L 78.535156 54.449219 Z M 78.535156 33.699219 " fill-opacity="1" fill-rule="nonzero"/></g><g clip-path="url(#6ed81a0bc7)"><path fill="#000000" d="M 102.632812 23.402344 L 113.46875 23.402344 L 120.132812 34.3125 L 126.792969 23.402344 L 137.632812 23.402344 L 137.632812 54.449219 L 127.285156 54.449219 L 127.285156 39.0625 L 120.132812 50.101562 L 119.953125 50.101562 L 112.800781 39.0625 L 112.800781 54.449219 L 102.632812 54.449219 Z M 102.632812 23.402344 " fill-opacity="1" fill-rule="nonzero"/></g><g clip-path="url(#f71c7bf496)"><path fill="#000000" d="M 142.808594 23.402344 L 153.199219 23.402344 L 153.199219 44.1875 L 167.816406 44.1875 L 167.816406 54.449219 L 142.808594 54.449219 Z M 142.808594 23.402344 " fill-opacity="1" fill-rule="nonzero"/></g><path fill="#ffffff" d="M 100.980469 164.4375 L 126.164062 164.4375 L 123.789062 190.921875 L 100.980469 197.070312 L 100.980469 218.3125 L 142.902344 206.714844 L 143.210938 203.261719 L 148.019531 149.5 L 148.519531 144.019531 L 100.980469 144.019531 Z M 100.980469 164.4375 " fill-opacity="1" fill-rule="nonzero"/><path fill="#ffffff" d="M 100.980469 123.054688 L 100.980469 123.105469 L 150.375 123.105469 L 150.785156 118.515625 L 151.71875 108.160156 L 152.207031 102.683594 L 100.980469 102.683594 Z M 100.980469 123.054688 " fill-opacity="1" fill-rule="nonzero"/><g clip-path="url(#ba4d152ace)"><path fill="#264de4" d="M 272.113281 253.644531 L 205.40625 235.152344 L 190.539062 68.652344 L 353.882812 68.652344 L 339.007812 235.125 L 272.117188 253.644531 Z M 272.113281 253.644531 " fill-opacity="1" fill-rule="nonzero"/></g><path fill="#2965f1" d="M 326.269531 224.527344 L 338.988281 82.265625 L 272.214844 82.265625 L 272.214844 239.488281 L 326.269531 224.523438 Z M 326.269531 224.527344 " fill-opacity="1" fill-rule="nonzero"/><path fill="#ebebeb" d="M 224.621094 144.019531 L 226.453125 164.4375 L 272.214844 164.4375 L 272.214844 144.019531 Z M 224.621094 144.019531 " fill-opacity="1" fill-rule="nonzero"/><path fill="#ebebeb" d="M 220.9375 102.683594 L 222.796875 123.105469 L 272.214844 123.105469 L 272.214844 102.683594 Z M 220.9375 102.683594 " fill-opacity="1" fill-rule="nonzero"/><path fill="#ebebeb" d="M 272.214844 197.050781 L 272.125 197.078125 L 249.351562 190.933594 L 247.894531 174.648438 L 227.367188 174.648438 L 230.230469 206.714844 L 272.121094 218.324219 L 272.214844 218.300781 Z M 272.214844 197.050781 " fill-opacity="1" fill-rule="nonzero"/><g clip-path="url(#bdd782e2c5)"><path fill="#000000" d="M 228.984375 23.402344 L 253.753906 23.402344 L 253.753906 33.746094 L 239.339844 33.746094 L 239.339844 44.089844 L 253.753906 44.089844 L 253.753906 54.429688 L 228.984375 54.429688 Z M 228.984375 23.402344 " fill-opacity="1" fill-rule="nonzero"/></g><g clip-path="url(#06608fa3fd)"><path fill="#000000" d="M 258.703125 23.402344 L 283.472656 23.402344 L 283.472656 32.394531 L 269.066406 32.394531 L 269.066406 34.195312 L 283.472656 34.195312 L 283.472656 54.878906 L 258.703125 54.878906 L 258.703125 45.4375 L 273.117188 45.4375 L 273.117188 43.636719 L 258.703125 43.636719 Z M 258.703125 23.402344 " fill-opacity="1" fill-rule="nonzero"/></g><g clip-path="url(#6298e607d4)"><path fill="#000000" d="M 288.429688 23.402344 L 313.195312 23.402344 L 313.195312 32.394531 L 298.78125 32.394531 L 298.78125 34.195312 L 313.195312 34.195312 L 313.195312 54.878906 L 288.429688 54.878906 L 288.429688 45.4375 L 302.835938 45.4375 L 302.835938 43.636719 L 288.429688 43.636719 Z M 288.429688 23.402344 " fill-opacity="1" fill-rule="nonzero"/></g><path fill="#ffffff" d="M 319.683594 144.019531 L 323.371094 102.683594 L 272.144531 102.683594 L 272.144531 123.105469 L 300.960938 123.105469 L 299.101562 144.019531 L 272.144531 144.019531 L 272.144531 164.4375 L 297.328125 164.4375 L 294.953125 190.921875 L 272.144531 197.070312 L 272.144531 218.3125 L 314.066406 206.714844 L 314.375 203.261719 L 319.183594 149.5 Z M 319.683594 144.019531 " fill-opacity="1" fill-rule="nonzero"/></svg>