<svg xmlns="http://www.w3.org/2000/svg" xmlns:xlink="http://www.w3.org/1999/xlink" width="500" zoomAndPan="magnify" viewBox="0 0 375 374.999991" height="500" preserveAspectRatio="xMidYMid meet" version="1.0"><defs><clipPath id="47261880c2"><path d="M 19.652344 117 L 183.152344 117 L 183.152344 302.617188 L 19.652344 302.617188 Z M 19.652344 117 " clip-rule="nonzero"/></clipPath><clipPath id="2f941c044f"><path d="M 34 72.367188 L 66 72.367188 L 66 104 L 34 104 Z M 34 72.367188 " clip-rule="nonzero"/></clipPath><clipPath id="e41554b7e4"><path d="M 69 72.367188 L 99 72.367188 L 99 104 L 69 104 Z M 69 72.367188 " clip-rule="nonzero"/></clipPath><clipPath id="5722c1d640"><path d="M 103 72.367188 L 139 72.367188 L 139 104 L 103 104 Z M 103 72.367188 " clip-rule="nonzero"/></clipPath><clipPath id="ef85c8f7d0"><path d="M 143 72.367188 L 169 72.367188 L 169 104 L 143 104 Z M 143 72.367188 " clip-rule="nonzero"/></clipPath><clipPath id="d7534e8d2b"><path d="M 192.066406 117 L 355.566406 117 L 355.566406 302.617188 L 192.066406 302.617188 Z M 192.066406 117 " clip-rule="nonzero"/></clipPath><clipPath id="7f00db2b9f"><path d="M 230 72.367188 L 256 72.367188 L 256 104 L 230 104 Z M 230 72.367188 " clip-rule="nonzero"/></clipPath><clipPath id="ed2ba69542"><path d="M 260 72.367188 L 286 72.367188 L 286 104 L 260 104 Z M 260 72.367188 " clip-rule="nonzero"/></clipPath><clipPath id="958b07966e"><path d="M 290 72.367188 L 315 72.367188 L 315 104 L 290 104 Z M 290 72.367188 " clip-rule="nonzero"/></clipPath></defs><g clip-path="url(#47261880c2)"><path fill="#e44d26" d="M 183.105469 117.617188 L 168.226562 284.089844 L 101.332031 302.609375 L 34.625 284.117188 L 19.761719 117.617188 L 183.101562 117.613281 L 183.109375 117.613281 Z M 183.105469 117.617188 " fill-opacity="1" fill-rule="nonzero"/></g><path fill="#f16529" d="M 101.433594 288.453125 L 155.488281 273.492188 L 168.207031 131.230469 L 101.433594 131.230469 Z M 101.433594 288.453125 " fill-opacity="1" fill-rule="nonzero"/><path fill="#ebebeb" d="M 72.503906 172.070312 L 101.433594 172.070312 L 101.433594 151.648438 L 50.15625 151.648438 L 50.644531 157.125 L 55.671875 213.402344 L 101.433594 213.402344 L 101.433594 192.984375 L 74.375 192.984375 Z M 72.503906 172.070312 " fill-opacity="1" fill-rule="nonzero"/><path fill="#ebebeb" d="M 77.113281 223.613281 L 56.585938 223.613281 L 59.449219 255.679688 L 101.339844 267.289062 L 101.433594 267.265625 L 101.433594 246.015625 L 101.34375 246.042969 L 78.570312 239.898438 Z M 77.113281 223.613281 " fill-opacity="1" fill-rule="nonzero"/><g clip-path="url(#2f941c044f)"><path fill="#000000" d="M 34.957031 72.367188 L 45.351562 72.367188 L 45.351562 82.621094 L 54.855469 82.621094 L 54.855469 72.367188 L 65.25 72.367188 L 65.25 103.414062 L 54.855469 103.414062 L 54.855469 93.019531 L 45.351562 93.019531 L 45.351562 103.414062 L 34.957031 103.414062 Z M 34.957031 72.367188 " fill-opacity="1" fill-rule="nonzero"/></g><g clip-path="url(#e41554b7e4)"><path fill="#000000" d="M 78.914062 82.664062 L 69.765625 82.664062 L 69.765625 72.367188 L 98.464844 72.367188 L 98.464844 82.664062 L 89.308594 82.664062 L 89.308594 103.414062 L 78.917969 103.414062 L 78.917969 82.664062 Z M 78.914062 82.664062 " fill-opacity="1" fill-rule="nonzero"/></g><g clip-path="url(#5722c1d640)"><path fill="#000000" d="M 103.015625 72.367188 L 113.851562 72.367188 L 120.515625 83.277344 L 127.175781 72.367188 L 138.015625 72.367188 L 138.015625 103.414062 L 127.667969 103.414062 L 127.667969 88.027344 L 120.515625 99.066406 L 120.335938 99.066406 L 113.183594 88.027344 L 113.183594 103.414062 L 103.015625 103.414062 Z M 103.015625 72.367188 " fill-opacity="1" fill-rule="nonzero"/></g><g clip-path="url(#ef85c8f7d0)"><path fill="#000000" d="M 143.191406 72.367188 L 153.582031 72.367188 L 153.582031 93.152344 L 168.199219 93.152344 L 168.199219 103.414062 L 143.191406 103.414062 Z M 143.191406 72.367188 " fill-opacity="1" fill-rule="nonzero"/></g><path fill="#ffffff" d="M 101.363281 213.402344 L 126.546875 213.402344 L 124.171875 239.886719 L 101.363281 246.035156 L 101.363281 267.277344 L 143.285156 255.679688 L 143.59375 252.226562 L 148.402344 198.464844 L 148.902344 192.984375 L 101.363281 192.984375 Z M 101.363281 213.402344 " fill-opacity="1" fill-rule="nonzero"/><path fill="#ffffff" d="M 101.363281 172.019531 L 101.363281 172.070312 L 150.757812 172.070312 L 151.167969 167.480469 L 152.101562 157.125 L 152.589844 151.648438 L 101.363281 151.648438 Z M 101.363281 172.019531 " fill-opacity="1" fill-rule="nonzero"/><g clip-path="url(#d7534e8d2b)"><path fill="#264de4" d="M 273.746094 302.609375 L 207.039062 284.121094 L 192.175781 117.617188 L 355.519531 117.617188 L 340.644531 284.089844 L 273.75 302.609375 Z M 273.746094 302.609375 " fill-opacity="1" fill-rule="nonzero"/></g><path fill="#2965f1" d="M 327.90625 273.492188 L 340.621094 131.230469 L 273.851562 131.230469 L 273.851562 288.453125 Z M 327.90625 273.492188 " fill-opacity="1" fill-rule="nonzero"/><path fill="#ebebeb" d="M 226.253906 192.984375 L 228.085938 213.402344 L 273.851562 213.402344 L 273.851562 192.984375 Z M 226.253906 192.984375 " fill-opacity="1" fill-rule="nonzero"/><path fill="#ebebeb" d="M 222.570312 151.648438 L 224.429688 172.070312 L 273.851562 172.070312 L 273.851562 151.648438 Z M 222.570312 151.648438 " fill-opacity="1" fill-rule="nonzero"/><path fill="#ebebeb" d="M 273.851562 246.015625 L 273.761719 246.042969 L 250.984375 239.898438 L 249.53125 223.613281 L 229 223.613281 L 231.867188 255.679688 L 273.753906 267.289062 L 273.851562 267.265625 Z M 273.851562 246.015625 " fill-opacity="1" fill-rule="nonzero"/><g clip-path="url(#7f00db2b9f)"><path fill="#000000" d="M 230.617188 72.367188 L 255.386719 72.367188 L 255.386719 82.710938 L 240.976562 82.710938 L 240.976562 93.054688 L 255.386719 93.054688 L 255.386719 103.394531 L 230.617188 103.394531 Z M 230.617188 72.367188 " fill-opacity="1" fill-rule="nonzero"/></g><g clip-path="url(#ed2ba69542)"><path fill="#000000" d="M 260.339844 72.367188 L 285.105469 72.367188 L 285.105469 81.359375 L 270.699219 81.359375 L 270.699219 83.160156 L 285.105469 83.160156 L 285.105469 103.847656 L 260.339844 103.847656 L 260.339844 94.402344 L 274.753906 94.402344 L 274.753906 92.601562 L 260.339844 92.601562 Z M 260.339844 72.367188 " fill-opacity="1" fill-rule="nonzero"/></g><g clip-path="url(#958b07966e)"><path fill="#000000" d="M 290.0625 72.367188 L 314.828125 72.367188 L 314.828125 81.359375 L 300.417969 81.359375 L 300.417969 83.160156 L 314.828125 83.160156 L 314.828125 103.847656 L 290.0625 103.847656 L 290.0625 94.402344 L 304.46875 94.402344 L 304.46875 92.601562 L 290.0625 92.601562 Z M 290.0625 72.367188 " fill-opacity="1" fill-rule="nonzero"/></g><path fill="#ffffff" d="M 321.316406 192.984375 L 325.003906 151.648438 L 273.78125 151.648438 L 273.78125 172.070312 L 302.59375 172.070312 L 300.738281 192.984375 L 273.78125 192.984375 L 273.78125 213.402344 L 298.964844 213.402344 L 296.585938 239.886719 L 273.78125 246.035156 L 273.78125 267.277344 L 315.699219 255.679688 L 316.007812 252.226562 L 320.816406 198.464844 Z M 321.316406 192.984375 " fill-opacity="1" fill-rule="nonzero"/></svg>