<svg xmlns="http://www.w3.org/2000/svg" xmlns:xlink="http://www.w3.org/1999/xlink" width="500" zoomAndPan="magnify" viewBox="0 0 375 374.999991" height="500" preserveAspectRatio="xMidYMid meet" version="1.0"><defs><clipPath id="dcb0e96c19"><path d="M 0 43.976562 L 375 43.976562 L 375 331 L 0 331 Z M 0 43.976562 " clip-rule="nonzero"/></clipPath></defs><path fill="#e5f4ff" d="M 372.054688 310.109375 C 372.054688 319.617188 364.339844 327.328125 354.824219 327.328125 L 21.648438 327.328125 C 12.128906 327.328125 4.414062 319.617188 4.414062 310.109375 L 4.414062 64.640625 C 4.414062 55.132812 12.128906 47.421875 21.648438 47.421875 L 354.824219 47.421875 C 364.339844 47.421875 372.054688 55.132812 372.054688 64.640625 L 372.054688 310.109375 " fill-opacity="1" fill-rule="nonzero"/><path fill="#65b6f7" d="M 113.703125 82.050781 C 108.777344 82.050781 104.78125 78.058594 104.78125 73.136719 C 104.78125 68.214844 108.777344 64.222656 113.703125 64.222656 C 118.632812 64.222656 122.625 68.214844 122.625 73.136719 C 122.625 78.058594 118.632812 82.050781 113.703125 82.050781 Z M 75.101562 82.050781 C 70.171875 82.050781 66.179688 78.058594 66.179688 73.136719 C 66.179688 68.214844 70.171875 64.222656 75.101562 64.222656 C 80.03125 64.222656 84.023438 68.214844 84.023438 73.136719 C 84.023438 78.058594 80.03125 82.050781 75.101562 82.050781 Z M 36.128906 82.050781 C 31.203125 82.050781 27.207031 78.058594 27.207031 73.136719 C 27.207031 68.214844 31.203125 64.222656 36.128906 64.222656 C 41.058594 64.222656 45.054688 68.214844 45.054688 73.136719 C 45.054688 78.058594 41.058594 82.050781 36.128906 82.050781 Z M 354.457031 48.15625 L 21.28125 48.15625 C 11.761719 48.15625 4.046875 55.867188 4.046875 65.375 L 4.046875 96.277344 L 371.6875 96.277344 L 371.6875 65.375 C 371.6875 55.867188 363.972656 48.15625 354.457031 48.15625 " fill-opacity="1" fill-rule="nonzero"/><path fill="#bde0fc" d="M 45.054688 73.128906 C 45.054688 68.203125 41.058594 64.214844 36.128906 64.214844 C 31.203125 64.214844 27.207031 68.203125 27.207031 73.128906 C 27.207031 78.054688 31.203125 82.042969 36.128906 82.042969 C 41.058594 82.042969 45.054688 78.054688 45.054688 73.128906 " fill-opacity="1" fill-rule="nonzero"/><path fill="#bde0fc" d="M 83.925781 73.128906 C 83.925781 68.203125 79.929688 64.214844 75 64.214844 C 70.074219 64.214844 66.078125 68.203125 66.078125 73.128906 C 66.078125 78.054688 70.074219 82.042969 75 82.042969 C 79.929688 82.042969 83.925781 78.054688 83.925781 73.128906 " fill-opacity="1" fill-rule="nonzero"/><path fill="#bde0fc" d="M 122.796875 73.128906 C 122.796875 68.203125 118.800781 64.214844 113.871094 64.214844 C 108.945312 64.214844 104.949219 68.203125 104.949219 73.128906 C 104.949219 78.054688 108.945312 82.042969 113.871094 82.042969 C 118.800781 82.042969 122.796875 78.054688 122.796875 73.128906 " fill-opacity="1" fill-rule="nonzero"/><path fill="#2189e6" d="M 55.882812 163.867188 L 55.882812 203.90625 L 83.457031 203.90625 L 83.457031 163.867188 L 104.414062 163.867188 L 104.414062 247.984375 L 83.457031 247.984375 L 83.457031 221.535156 L 55.882812 221.535156 L 55.882812 247.984375 L 34.929688 247.984375 L 34.929688 163.867188 L 55.882812 163.867188 " fill-opacity="1" fill-rule="nonzero"/><path fill="#2189e6" d="M 117.28125 181.496094 L 117.28125 163.867188 L 179.78125 163.867188 L 179.78125 181.496094 L 158.824219 181.496094 L 158.824219 247.984375 L 137.867188 247.984375 L 137.867188 181.496094 L 117.28125 181.496094 " fill-opacity="1" fill-rule="nonzero"/><path fill="#2189e6" d="M 193.015625 181.496094 L 193.015625 163.867188 L 259.925781 163.867188 L 259.925781 181.496094 L 235.292969 181.496094 L 235.292969 247.984375 L 214.335938 247.984375 L 214.335938 181.496094 L 193.015625 181.496094 " fill-opacity="1" fill-rule="nonzero"/><path fill="#2189e6" d="M 303.585938 208.679688 C 305.988281 208.679688 308.300781 208.496094 310.523438 208.140625 C 312.746094 207.789062 314.703125 207.097656 316.394531 206.074219 C 318.082031 205.050781 319.441406 203.605469 320.464844 201.738281 C 321.484375 199.871094 322 197.429688 322 194.40625 C 322 191.386719 321.484375 188.941406 320.464844 187.074219 C 319.441406 185.210938 318.082031 183.765625 316.394531 182.742188 C 314.703125 181.722656 312.746094 180.976562 310.523438 180.621094 C 308.300781 180.265625 305.988281 180.027344 303.585938 180.027344 L 294.484375 180.027344 L 294.484375 208.679688 Z M 309.324219 163.867188 C 315.28125 163.867188 320.351562 164.738281 324.53125 166.472656 C 328.714844 168.207031 332.113281 170.5 334.738281 173.34375 C 337.363281 176.1875 339.277344 179.429688 340.476562 183.074219 C 341.675781 186.71875 342.277344 190.496094 342.277344 194.40625 C 342.277344 198.226562 341.675781 201.984375 340.476562 205.671875 C 339.277344 209.359375 337.363281 212.625 334.738281 215.46875 C 332.113281 218.3125 328.714844 220.554688 324.53125 222.289062 C 320.351562 224.023438 315.28125 224.84375 309.324219 224.84375 L 294.484375 224.84375 L 294.484375 247.984375 L 273.894531 247.984375 L 273.894531 163.867188 L 309.324219 163.867188 " fill-opacity="1" fill-rule="nonzero"/><path fill="#0e47a0" d="M 350.171875 313.367188 L 48.164062 313.367188 C 46.945312 313.367188 45.957031 312.382812 45.957031 311.164062 C 45.957031 309.949219 46.945312 308.960938 48.164062 308.960938 L 350.171875 308.960938 C 352.667969 308.960938 354.777344 306.769531 354.777344 304.179688 L 354.777344 218.964844 C 354.777344 217.75 355.765625 216.761719 356.984375 216.761719 C 358.199219 216.761719 359.1875 217.75 359.1875 218.964844 L 359.1875 304.179688 C 359.1875 309.246094 355.144531 313.367188 350.171875 313.367188 " fill-opacity="1" fill-rule="nonzero"/><path fill="#0e47a0" d="M 356.617188 86.726562 C 355.398438 86.726562 354.410156 85.738281 354.410156 84.523438 L 354.410156 70.324219 C 354.410156 67.21875 352.039062 64.6875 349.128906 64.6875 L 304.042969 64.6875 C 302.824219 64.6875 301.835938 63.699219 301.835938 62.484375 C 301.835938 61.265625 302.824219 60.28125 304.042969 60.28125 L 349.128906 60.28125 C 354.472656 60.28125 358.820312 64.785156 358.820312 70.324219 L 358.820312 84.523438 C 358.820312 85.738281 357.832031 86.726562 356.617188 86.726562 " fill-opacity="1" fill-rule="nonzero"/><path fill="#0e47a0" d="M 293.382812 64.6875 L 283.085938 64.6875 C 281.867188 64.6875 280.882812 63.699219 280.882812 62.484375 C 280.882812 61.265625 281.867188 60.28125 283.085938 60.28125 L 293.382812 60.28125 C 294.597656 60.28125 295.585938 61.265625 295.585938 62.484375 C 295.585938 63.699219 294.597656 64.6875 293.382812 64.6875 " fill-opacity="1" fill-rule="nonzero"/><path fill="#0e47a0" d="M 36.5 67.152344 C 33.605469 67.152344 31.253906 69.503906 31.253906 72.394531 C 31.253906 75.285156 33.605469 77.636719 36.5 77.636719 C 39.390625 77.636719 41.746094 75.285156 41.746094 72.394531 C 41.746094 69.503906 39.390625 67.152344 36.5 67.152344 Z M 36.5 84.984375 C 29.550781 84.984375 23.898438 79.335938 23.898438 72.394531 C 23.898438 65.453125 29.550781 59.804688 36.5 59.804688 C 43.445312 59.804688 49.097656 65.453125 49.097656 72.394531 C 49.097656 79.335938 43.445312 84.984375 36.5 84.984375 " fill-opacity="1" fill-rule="nonzero"/><path fill="#0e47a0" d="M 75.371094 67.152344 C 72.476562 67.152344 70.125 69.503906 70.125 72.394531 C 70.125 75.285156 72.476562 77.636719 75.371094 77.636719 C 78.261719 77.636719 80.617188 75.285156 80.617188 72.394531 C 80.617188 69.503906 78.261719 67.152344 75.371094 67.152344 Z M 75.371094 84.984375 C 68.421875 84.984375 62.769531 79.335938 62.769531 72.394531 C 62.769531 65.453125 68.421875 59.804688 75.371094 59.804688 C 82.316406 59.804688 87.96875 65.453125 87.96875 72.394531 C 87.96875 79.335938 82.316406 84.984375 75.371094 84.984375 " fill-opacity="1" fill-rule="nonzero"/><path fill="#0e47a0" d="M 114.238281 67.152344 C 111.347656 67.152344 108.992188 69.503906 108.992188 72.394531 C 108.992188 75.285156 111.347656 77.636719 114.238281 77.636719 C 117.132812 77.636719 119.484375 75.285156 119.484375 72.394531 C 119.484375 69.503906 117.132812 67.152344 114.238281 67.152344 Z M 114.238281 84.984375 C 107.292969 84.984375 101.640625 79.335938 101.640625 72.394531 C 101.640625 65.453125 107.292969 59.804688 114.238281 59.804688 C 121.1875 59.804688 126.839844 65.453125 126.839844 72.394531 C 126.839844 79.335938 121.1875 84.984375 114.238281 84.984375 " fill-opacity="1" fill-rule="nonzero"/><g clip-path="url(#dcb0e96c19)"><path fill="#0e47a0" d="M 20.914062 51.097656 C 13.4375 51.097656 7.355469 57.171875 7.355469 64.640625 L 7.355469 310.109375 C 7.355469 317.578125 13.4375 323.652344 20.914062 323.652344 L 354.085938 323.652344 C 361.5625 323.652344 367.644531 317.578125 367.644531 310.109375 L 367.644531 64.640625 C 367.644531 57.171875 361.5625 51.097656 354.085938 51.097656 Z M 354.085938 331 L 20.914062 331 C 9.382812 331 0.00390625 321.628906 0.00390625 310.109375 L 0.00390625 64.640625 C 0.00390625 53.121094 9.382812 43.75 20.914062 43.75 L 354.085938 43.75 C 365.617188 43.75 374.996094 53.121094 374.996094 64.640625 L 374.996094 310.109375 C 374.996094 321.628906 365.617188 331 354.085938 331 " fill-opacity="1" fill-rule="nonzero"/></g><path fill="#0e47a0" d="M 372.792969 100.6875 L 3.3125 100.6875 L 3.3125 93.339844 L 372.792969 93.339844 L 372.792969 100.6875 " fill-opacity="1" fill-rule="nonzero"/><path fill="#0e47a0" d="M 87.132812 244.3125 L 100.738281 244.3125 L 100.738281 167.539062 L 87.132812 167.539062 L 87.132812 207.578125 L 52.207031 207.578125 L 52.207031 167.539062 L 38.605469 167.539062 L 38.605469 244.3125 L 52.207031 244.3125 L 52.207031 217.863281 L 87.132812 217.863281 Z M 108.089844 251.65625 L 79.78125 251.65625 L 79.78125 225.210938 L 59.5625 225.210938 L 59.5625 251.65625 L 31.253906 251.65625 L 31.253906 160.191406 L 59.5625 160.191406 L 59.5625 200.230469 L 79.78125 200.230469 L 79.78125 160.191406 L 108.089844 160.191406 L 108.089844 251.65625 " fill-opacity="1" fill-rule="nonzero"/><path fill="#0e47a0" d="M 141.542969 244.3125 L 155.148438 244.3125 L 155.148438 177.824219 L 176.101562 177.824219 L 176.101562 167.539062 L 120.957031 167.539062 L 120.957031 177.824219 L 141.542969 177.824219 Z M 162.5 251.65625 L 134.191406 251.65625 L 134.191406 185.171875 L 113.605469 185.171875 L 113.605469 160.191406 L 183.457031 160.191406 L 183.457031 185.171875 L 162.5 185.171875 L 162.5 251.65625 " fill-opacity="1" fill-rule="nonzero"/><path fill="#0e47a0" d="M 218.015625 244.3125 L 231.617188 244.3125 L 231.617188 177.824219 L 256.25 177.824219 L 256.25 167.539062 L 196.691406 167.539062 L 196.691406 177.824219 L 218.015625 177.824219 Z M 238.96875 251.65625 L 210.660156 251.65625 L 210.660156 185.171875 L 189.339844 185.171875 L 189.339844 160.191406 L 263.601562 160.191406 L 263.601562 185.171875 L 238.96875 185.171875 L 238.96875 251.65625 " fill-opacity="1" fill-rule="nonzero"/><path fill="#0e47a0" d="M 298.160156 205.007812 L 303.585938 205.007812 C 305.765625 205.007812 307.902344 204.839844 309.941406 204.515625 C 311.679688 204.238281 313.210938 203.707031 314.488281 202.933594 C 315.625 202.246094 316.523438 201.277344 317.242188 199.972656 C 317.957031 198.664062 318.320312 196.789062 318.320312 194.40625 C 318.320312 192.023438 317.957031 190.152344 317.238281 188.839844 C 316.527344 187.542969 315.625 186.574219 314.488281 185.882812 C 313.128906 185.0625 311.597656 184.511719 309.941406 184.246094 C 307.640625 183.878906 305.558594 183.703125 303.585938 183.703125 L 298.160156 183.703125 Z M 303.585938 212.351562 L 290.808594 212.351562 L 290.808594 176.355469 L 303.585938 176.355469 C 305.953125 176.355469 308.410156 176.5625 311.101562 176.992188 C 313.699219 177.410156 316.117188 178.285156 318.296875 179.597656 C 320.542969 180.960938 322.355469 182.882812 323.6875 185.308594 C 325.007812 187.71875 325.675781 190.777344 325.675781 194.40625 C 325.675781 198.035156 325.007812 201.097656 323.6875 203.503906 C 322.351562 205.941406 320.539062 207.863281 318.296875 209.214844 C 316.203125 210.484375 313.78125 211.34375 311.101562 211.769531 C 308.683594 212.15625 306.152344 212.351562 303.585938 212.351562 Z M 277.574219 244.3125 L 290.808594 244.3125 L 290.808594 221.167969 L 309.324219 221.167969 C 314.839844 221.167969 319.484375 220.40625 323.125 218.894531 C 326.886719 217.335938 329.804688 215.402344 332.035156 212.980469 C 334.285156 210.539062 335.949219 207.695312 336.980469 204.535156 C 338.054688 201.234375 338.601562 197.824219 338.601562 194.40625 C 338.601562 190.90625 338.054688 187.480469 336.984375 184.222656 C 335.953125 181.101562 334.289062 178.277344 332.035156 175.828125 C 329.78125 173.390625 326.78125 171.382812 323.125 169.867188 C 319.398438 168.324219 314.753906 167.539062 309.324219 167.539062 L 277.574219 167.539062 Z M 298.160156 251.65625 L 270.21875 251.65625 L 270.21875 160.191406 L 309.324219 160.191406 C 315.726562 160.191406 321.316406 161.164062 325.941406 163.078125 C 330.589844 165.007812 334.460938 167.621094 337.441406 170.851562 C 340.414062 174.074219 342.609375 177.800781 343.96875 181.925781 C 345.285156 185.925781 345.953125 190.121094 345.953125 194.40625 C 345.953125 198.597656 345.289062 202.769531 343.972656 206.808594 C 342.613281 210.984375 340.417969 214.734375 337.441406 217.957031 C 334.472656 221.175781 330.710938 223.703125 325.941406 225.679688 C 321.339844 227.589844 315.902344 228.515625 309.324219 228.515625 L 298.160156 228.515625 L 298.160156 251.65625 " fill-opacity="1" fill-rule="nonzero"/></svg>