<svg xmlns="http://www.w3.org/2000/svg" xmlns:xlink="http://www.w3.org/1999/xlink" width="500" zoomAndPan="magnify" viewBox="0 0 375 374.999991" height="500" preserveAspectRatio="xMidYMid meet" version="1.0"><defs><clipPath id="3e9f5219b7"><path d="M 84.828125 84.828125 L 290.328125 84.828125 L 290.328125 290.328125 L 84.828125 290.328125 Z M 84.828125 84.828125 " clip-rule="nonzero"/></clipPath></defs><g clip-path="url(#3e9f5219b7)"><path fill="#f7df1e" d="M 84.828125 84.828125 L 290.328125 84.828125 L 290.328125 290.328125 L 84.828125 290.328125 Z M 84.828125 84.828125 " fill-opacity="1" fill-rule="nonzero"/></g><path fill="#000000" d="M 138.863281 256.558594 L 154.589844 247.046875 C 157.621094 252.421875 160.382812 256.976562 167.003906 256.976562 C 173.347656 256.976562 177.351562 254.488281 177.351562 244.839844 L 177.351562 179.175781 L 196.65625 179.175781 L 196.65625 245.109375 C 196.65625 265.105469 184.9375 274.21875 167.832031 274.21875 C 152.382812 274.21875 143.414062 266.214844 138.863281 256.558594 " fill-opacity="1" fill-rule="nonzero"/><path fill="#000000" d="M 207.148438 254.488281 L 222.875 245.382812 C 227.015625 252.144531 232.394531 257.113281 241.90625 257.113281 C 249.910156 257.113281 255.015625 253.113281 255.015625 247.589844 C 255.015625 240.96875 249.773438 238.625 240.945312 234.761719 L 236.121094 232.691406 C 222.183594 226.761719 212.945312 219.320312 212.945312 203.585938 C 212.945312 189.105469 223.976562 178.066406 241.226562 178.066406 C 253.5 178.066406 262.328125 182.34375 268.671875 193.519531 L 253.636719 203.175781 C 250.328125 197.242188 246.742188 194.898438 241.226562 194.898438 C 235.566406 194.898438 231.976562 198.488281 231.976562 203.175781 C 231.976562 208.972656 235.566406 211.316406 243.84375 214.902344 L 248.667969 216.96875 C 265.082031 224.007812 274.332031 231.175781 274.332031 247.320312 C 274.332031 264.699219 260.675781 274.21875 242.324219 274.21875 C 224.390625 274.21875 212.808594 265.660156 207.148438 254.488281 " fill-opacity="1" fill-rule="nonzero"/></svg>