<svg xmlns="http://www.w3.org/2000/svg" xmlns:xlink="http://www.w3.org/1999/xlink" width="500" zoomAndPan="magnify" viewBox="0 0 375 374.999991" height="500" preserveAspectRatio="xMidYMid meet" version="1.0"><defs><clipPath id="0d8dddcc46"><path d="M 187 61 L 372.5625 61 L 372.5625 375 L 187 375 Z M 187 61 " clip-rule="nonzero"/></clipPath><clipPath id="2fce56940a"><path d="M 2.8125 0 L 372.5625 0 L 372.5625 173 L 2.8125 173 Z M 2.8125 0 " clip-rule="nonzero"/></clipPath><clipPath id="5c44d66f5b"><path d="M 2.8125 61 L 188 61 L 188 375 L 2.8125 375 Z M 2.8125 61 " clip-rule="nonzero"/></clipPath></defs><g clip-path="url(#0d8dddcc46)"><path fill="#ea1e62" d="M 187.726562 374.890625 L 372.609375 263.910156 L 372.609375 61.6875 L 187.726562 172.667969 L 187.726562 374.890625 " fill-opacity="1" fill-rule="nonzero"/></g><g clip-path="url(#2fce56940a)"><path fill="#da1744" d="M 260.75 0.53125 L 187.726562 43.738281 L 115.515625 0.0898438 L 2.847656 61.6875 L 187.726562 172.667969 L 372.609375 61.6875 L 260.75 0.53125 " fill-opacity="1" fill-rule="nonzero"/></g><g clip-path="url(#5c44d66f5b)"><path fill="#ad1038" d="M 187.726562 374.890625 L 2.847656 263.910156 L 2.847656 61.6875 L 187.726562 172.667969 L 187.726562 374.890625 " fill-opacity="1" fill-rule="nonzero"/></g><path fill="#8b1534" d="M 260.363281 129.066406 L 187.726562 172.667969 L 115.09375 129.066406 L 187.726562 89.355469 L 260.363281 129.066406 " fill-opacity="1" fill-rule="nonzero"/><path fill="#da1744" d="M 260.363281 302.609375 L 187.726562 346.210938 L 115.09375 302.609375 L 187.726562 262.898438 L 260.363281 302.609375 " fill-opacity="1" fill-rule="nonzero"/><path fill="#8b1534" d="M 115.09375 129.066406 L 115.09375 302.609375 L 187.726562 262.898438 L 187.726562 89.355469 L 115.09375 129.066406 " fill-opacity="1" fill-rule="nonzero"/><path fill="#ad1038" d="M 260.363281 129.066406 L 260.363281 302.609375 L 187.726562 262.898438 L 187.726562 89.355469 L 260.363281 129.066406 " fill-opacity="1" fill-rule="nonzero"/></svg>