<svg xmlns="http://www.w3.org/2000/svg" xmlns:xlink="http://www.w3.org/1999/xlink" width="500" zoomAndPan="magnify" viewBox="0 0 375 374.999991" height="500" preserveAspectRatio="xMidYMid meet" version="1.0"><defs><clipPath id="241d99ecc6"><path d="M 63.140625 122.832031 L 312.140625 122.832031 L 312.140625 251.832031 L 63.140625 251.832031 Z M 63.140625 122.832031 " clip-rule="nonzero"/></clipPath><clipPath id="1415f4c5ef"><path d="M 63.140625 187.351562 C 63.140625 222.898438 118.882812 251.710938 187.636719 251.710938 C 256.390625 251.710938 312.132812 222.898438 312.132812 187.351562 C 312.132812 151.808594 256.390625 122.992188 187.636719 122.992188 C 118.882812 122.992188 63.140625 151.808594 63.140625 187.351562 " clip-rule="nonzero"/></clipPath><clipPath id="2a36898ba9"><path d="M 63.140625 187.351562 C 63.140625 222.898438 118.882812 251.710938 187.636719 251.710938 C 256.390625 251.710938 312.132812 222.898438 312.132812 187.351562 C 312.132812 151.808594 256.390625 122.992188 187.636719 122.992188 C 118.882812 122.992188 63.140625 151.808594 63.140625 187.351562 " clip-rule="nonzero"/></clipPath><radialGradient gradientTransform="matrix(1.008711, 0, 0, 0.991289, 137.88849, 145.619357)" gradientUnits="userSpaceOnUse" r="162.071018" cx="0" id="a230eddfdc" cy="0" fx="0" fy="0"><stop stop-opacity="1" stop-color="rgb(68.199158%, 69.799805%, 83.499146%)" offset="0"/><stop stop-opacity="1" stop-color="rgb(68.199158%, 69.799805%, 83.499146%)" offset="0.25"/><stop stop-opacity="1" stop-color="rgb(68.164062%, 69.764709%, 83.473206%)" offset="0.296875"/><stop stop-opacity="1" stop-color="rgb(67.956543%, 69.555664%, 83.317566%)" offset="0.300781"/><stop stop-opacity="1" stop-color="rgb(67.608643%, 69.20929%, 83.059692%)" offset="0.304688"/><stop stop-opacity="1" stop-color="rgb(67.260742%, 68.861389%, 82.800293%)" offset="0.308594"/><stop stop-opacity="1" stop-color="rgb(66.914368%, 68.513489%, 82.542419%)" offset="0.3125"/><stop stop-opacity="1" stop-color="rgb(66.566467%, 68.167114%, 82.28302%)" offset="0.316406"/><stop stop-opacity="1" stop-color="rgb(66.220093%, 67.819214%, 82.025146%)" offset="0.320312"/><stop stop-opacity="1" stop-color="rgb(65.872192%, 67.472839%, 81.765747%)" offset="0.324219"/><stop stop-opacity="1" stop-color="rgb(65.525818%, 67.124939%, 81.506348%)" offset="0.328125"/><stop stop-opacity="1" stop-color="rgb(65.177917%, 66.778564%, 81.248474%)" offset="0.332031"/><stop stop-opacity="1" stop-color="rgb(64.831543%, 66.430664%, 80.989075%)" offset="0.335938"/><stop stop-opacity="1" stop-color="rgb(64.483643%, 66.08429%, 80.731201%)" offset="0.339844"/><stop stop-opacity="1" stop-color="rgb(64.135742%, 65.736389%, 80.471802%)" offset="0.34375"/><stop stop-opacity="1" stop-color="rgb(63.789368%, 65.388489%, 80.213928%)" offset="0.347656"/><stop stop-opacity="1" stop-color="rgb(63.441467%, 65.042114%, 79.954529%)" offset="0.351562"/><stop stop-opacity="1" stop-color="rgb(63.095093%, 64.694214%, 79.696655%)" offset="0.355469"/><stop stop-opacity="1" stop-color="rgb(62.747192%, 64.347839%, 79.437256%)" offset="0.359375"/><stop stop-opacity="1" stop-color="rgb(62.400818%, 63.999939%, 79.179382%)" offset="0.363281"/><stop stop-opacity="1" stop-color="rgb(62.052917%, 63.653564%, 78.919983%)" offset="0.367188"/><stop stop-opacity="1" stop-color="rgb(61.706543%, 63.305664%, 78.662109%)" offset="0.371094"/><stop stop-opacity="1" stop-color="rgb(61.358643%, 62.95929%, 78.40271%)" offset="0.375"/><stop stop-opacity="1" stop-color="rgb(61.010742%, 62.611389%, 78.144836%)" offset="0.378906"/><stop stop-opacity="1" stop-color="rgb(60.664368%, 62.263489%, 77.885437%)" offset="0.382812"/><stop stop-opacity="1" stop-color="rgb(60.316467%, 61.917114%, 77.627563%)" offset="0.386719"/><stop stop-opacity="1" stop-color="rgb(59.970093%, 61.569214%, 77.368164%)" offset="0.390625"/><stop stop-opacity="1" stop-color="rgb(59.622192%, 61.222839%, 77.108765%)" offset="0.394531"/><stop stop-opacity="1" stop-color="rgb(59.275818%, 60.874939%, 76.850891%)" offset="0.398438"/><stop stop-opacity="1" stop-color="rgb(58.927917%, 60.528564%, 76.591492%)" offset="0.402344"/><stop stop-opacity="1" stop-color="rgb(58.581543%, 60.180664%, 76.333618%)" offset="0.40625"/><stop stop-opacity="1" stop-color="rgb(58.233643%, 59.83429%, 76.074219%)" offset="0.410156"/><stop stop-opacity="1" stop-color="rgb(57.885742%, 59.486389%, 75.816345%)" offset="0.414062"/><stop stop-opacity="1" stop-color="rgb(57.539368%, 59.138489%, 75.556946%)" offset="0.417969"/><stop stop-opacity="1" stop-color="rgb(57.191467%, 58.792114%, 75.299072%)" offset="0.421875"/><stop stop-opacity="1" stop-color="rgb(56.845093%, 58.444214%, 75.039673%)" offset="0.425781"/><stop stop-opacity="1" stop-color="rgb(56.497192%, 58.097839%, 74.781799%)" offset="0.429688"/><stop stop-opacity="1" stop-color="rgb(56.150818%, 57.749939%, 74.5224%)" offset="0.433594"/><stop stop-opacity="1" stop-color="rgb(55.802917%, 57.403564%, 74.264526%)" offset="0.4375"/><stop stop-opacity="1" stop-color="rgb(55.456543%, 57.055664%, 74.005127%)" offset="0.441406"/><stop stop-opacity="1" stop-color="rgb(55.108643%, 56.70929%, 73.747253%)" offset="0.445312"/><stop stop-opacity="1" stop-color="rgb(54.760742%, 56.361389%, 73.487854%)" offset="0.449219"/><stop stop-opacity="1" stop-color="rgb(54.414368%, 56.013489%, 73.22998%)" offset="0.453125"/><stop stop-opacity="1" stop-color="rgb(54.066467%, 55.667114%, 72.970581%)" offset="0.457031"/><stop stop-opacity="1" stop-color="rgb(53.720093%, 55.319214%, 72.711182%)" offset="0.460938"/><stop stop-opacity="1" stop-color="rgb(53.372192%, 54.972839%, 72.453308%)" offset="0.464844"/><stop stop-opacity="1" stop-color="rgb(53.025818%, 54.624939%, 72.193909%)" offset="0.46875"/><stop stop-opacity="1" stop-color="rgb(52.677917%, 54.278564%, 71.936035%)" offset="0.472656"/><stop stop-opacity="1" stop-color="rgb(52.331543%, 53.930664%, 71.676636%)" offset="0.476562"/><stop stop-opacity="1" stop-color="rgb(51.983643%, 53.58429%, 71.418762%)" offset="0.480469"/><stop stop-opacity="1" stop-color="rgb(51.635742%, 53.236389%, 71.159363%)" offset="0.484375"/><stop stop-opacity="1" stop-color="rgb(51.289368%, 52.888489%, 70.901489%)" offset="0.488281"/><stop stop-opacity="1" stop-color="rgb(50.941467%, 52.542114%, 70.64209%)" offset="0.492188"/><stop stop-opacity="1" stop-color="rgb(50.595093%, 52.194214%, 70.384216%)" offset="0.496094"/><stop stop-opacity="1" stop-color="rgb(50.247192%, 51.847839%, 70.124817%)" offset="0.5"/><stop stop-opacity="1" stop-color="rgb(49.900818%, 51.499939%, 69.866943%)" offset="0.503906"/><stop stop-opacity="1" stop-color="rgb(49.552917%, 51.153564%, 69.607544%)" offset="0.507812"/><stop stop-opacity="1" stop-color="rgb(49.206543%, 50.805664%, 69.34967%)" offset="0.511719"/><stop stop-opacity="1" stop-color="rgb(48.858643%, 50.45929%, 69.090271%)" offset="0.515625"/><stop stop-opacity="1" stop-color="rgb(48.510742%, 50.111389%, 68.832397%)" offset="0.519531"/><stop stop-opacity="1" stop-color="rgb(48.164368%, 49.763489%, 68.572998%)" offset="0.523438"/><stop stop-opacity="1" stop-color="rgb(47.816467%, 49.417114%, 68.313599%)" offset="0.527344"/><stop stop-opacity="1" stop-color="rgb(47.470093%, 49.069214%, 68.055725%)" offset="0.53125"/><stop stop-opacity="1" stop-color="rgb(47.122192%, 48.722839%, 67.796326%)" offset="0.535156"/><stop stop-opacity="1" stop-color="rgb(46.775818%, 48.374939%, 67.538452%)" offset="0.539062"/><stop stop-opacity="1" stop-color="rgb(46.427917%, 48.028564%, 67.279053%)" offset="0.542969"/><stop stop-opacity="1" stop-color="rgb(46.081543%, 47.680664%, 67.021179%)" offset="0.546875"/><stop stop-opacity="1" stop-color="rgb(45.733643%, 47.33429%, 66.76178%)" offset="0.550781"/><stop stop-opacity="1" stop-color="rgb(45.385742%, 46.986389%, 66.503906%)" offset="0.554688"/><stop stop-opacity="1" stop-color="rgb(45.039368%, 46.638489%, 66.244507%)" offset="0.558594"/><stop stop-opacity="1" stop-color="rgb(44.691467%, 46.292114%, 65.986633%)" offset="0.5625"/><stop stop-opacity="1" stop-color="rgb(44.345093%, 45.944214%, 65.727234%)" offset="0.566406"/><stop stop-opacity="1" stop-color="rgb(43.997192%, 45.597839%, 65.46936%)" offset="0.570312"/><stop stop-opacity="1" stop-color="rgb(43.650818%, 45.249939%, 65.209961%)" offset="0.574219"/><stop stop-opacity="1" stop-color="rgb(43.302917%, 44.903564%, 64.952087%)" offset="0.578125"/><stop stop-opacity="1" stop-color="rgb(42.956543%, 44.555664%, 64.692688%)" offset="0.582031"/><stop stop-opacity="1" stop-color="rgb(42.608643%, 44.20929%, 64.434814%)" offset="0.585938"/><stop stop-opacity="1" stop-color="rgb(42.260742%, 43.861389%, 64.175415%)" offset="0.589844"/><stop stop-opacity="1" stop-color="rgb(41.914368%, 43.513489%, 63.916016%)" offset="0.59375"/><stop stop-opacity="1" stop-color="rgb(41.566467%, 43.167114%, 63.658142%)" offset="0.597656"/><stop stop-opacity="1" stop-color="rgb(41.220093%, 42.819214%, 63.398743%)" offset="0.601562"/><stop stop-opacity="1" stop-color="rgb(40.872192%, 42.472839%, 63.140869%)" offset="0.605469"/><stop stop-opacity="1" stop-color="rgb(40.525818%, 42.124939%, 62.88147%)" offset="0.609375"/><stop stop-opacity="1" stop-color="rgb(40.177917%, 41.778564%, 62.623596%)" offset="0.613281"/><stop stop-opacity="1" stop-color="rgb(39.831543%, 41.430664%, 62.364197%)" offset="0.617188"/><stop stop-opacity="1" stop-color="rgb(39.483643%, 41.08429%, 62.106323%)" offset="0.621094"/><stop stop-opacity="1" stop-color="rgb(39.135742%, 40.736389%, 61.846924%)" offset="0.625"/><stop stop-opacity="1" stop-color="rgb(38.789368%, 40.388489%, 61.58905%)" offset="0.628906"/><stop stop-opacity="1" stop-color="rgb(38.441467%, 40.042114%, 61.329651%)" offset="0.632812"/><stop stop-opacity="1" stop-color="rgb(38.095093%, 39.694214%, 61.071777%)" offset="0.636719"/><stop stop-opacity="1" stop-color="rgb(37.747192%, 39.347839%, 60.812378%)" offset="0.640625"/><stop stop-opacity="1" stop-color="rgb(37.400818%, 38.999939%, 60.554504%)" offset="0.644531"/><stop stop-opacity="1" stop-color="rgb(37.052917%, 38.653564%, 60.295105%)" offset="0.648438"/><stop stop-opacity="1" stop-color="rgb(36.706543%, 38.305664%, 60.037231%)" offset="0.652344"/><stop stop-opacity="1" stop-color="rgb(36.358643%, 37.95929%, 59.777832%)" offset="0.65625"/><stop stop-opacity="1" stop-color="rgb(36.010742%, 37.611389%, 59.518433%)" offset="0.660156"/><stop stop-opacity="1" stop-color="rgb(35.664368%, 37.263489%, 59.260559%)" offset="0.664062"/><stop stop-opacity="1" stop-color="rgb(35.316467%, 36.917114%, 59.00116%)" offset="0.667969"/><stop stop-opacity="1" stop-color="rgb(34.970093%, 36.569214%, 58.743286%)" offset="0.671875"/><stop stop-opacity="1" stop-color="rgb(34.622192%, 36.222839%, 58.483887%)" offset="0.675781"/><stop stop-opacity="1" stop-color="rgb(34.275818%, 35.874939%, 58.226013%)" offset="0.679688"/><stop stop-opacity="1" stop-color="rgb(33.927917%, 35.528564%, 57.966614%)" offset="0.683594"/><stop stop-opacity="1" stop-color="rgb(33.581543%, 35.180664%, 57.70874%)" offset="0.6875"/><stop stop-opacity="1" stop-color="rgb(33.233643%, 34.83429%, 57.449341%)" offset="0.691406"/><stop stop-opacity="1" stop-color="rgb(32.885742%, 34.486389%, 57.191467%)" offset="0.695312"/><stop stop-opacity="1" stop-color="rgb(32.539368%, 34.138489%, 56.932068%)" offset="0.699219"/><stop stop-opacity="1" stop-color="rgb(32.191467%, 33.792114%, 56.674194%)" offset="0.703125"/><stop stop-opacity="1" stop-color="rgb(31.845093%, 33.444214%, 56.414795%)" offset="0.707031"/><stop stop-opacity="1" stop-color="rgb(31.497192%, 33.097839%, 56.156921%)" offset="0.710938"/><stop stop-opacity="1" stop-color="rgb(31.150818%, 32.749939%, 55.897522%)" offset="0.714844"/><stop stop-opacity="1" stop-color="rgb(30.802917%, 32.403564%, 55.639648%)" offset="0.71875"/><stop stop-opacity="1" stop-color="rgb(30.456543%, 32.055664%, 55.380249%)" offset="0.722656"/><stop stop-opacity="1" stop-color="rgb(30.108643%, 31.70929%, 55.122375%)" offset="0.726562"/><stop stop-opacity="1" stop-color="rgb(29.760742%, 31.361389%, 54.862976%)" offset="0.730469"/><stop stop-opacity="1" stop-color="rgb(29.414368%, 31.013489%, 54.603577%)" offset="0.734375"/><stop stop-opacity="1" stop-color="rgb(29.066467%, 30.667114%, 54.345703%)" offset="0.738281"/><stop stop-opacity="1" stop-color="rgb(28.720093%, 30.319214%, 54.086304%)" offset="0.742188"/><stop stop-opacity="1" stop-color="rgb(28.372192%, 29.972839%, 53.82843%)" offset="0.746094"/><stop stop-opacity="1" stop-color="rgb(28.199768%, 29.798889%, 53.69873%)" offset="1"/></radialGradient></defs><g clip-path="url(#241d99ecc6)"><g clip-path="url(#1415f4c5ef)"><g clip-path="url(#2a36898ba9)"><path fill="url(#a230eddfdc)" d="M 63.140625 122.992188 L 63.140625 251.710938 L 312.132812 251.710938 L 312.132812 122.992188 Z M 63.140625 122.992188 " fill-rule="nonzero"/></g></g></g><path fill="#777bb3" d="M 187.636719 246.933594 C 253.707031 246.933594 307.269531 220.257812 307.269531 187.351562 C 307.269531 154.449219 253.707031 127.773438 187.636719 127.773438 C 121.566406 127.773438 68.003906 154.449219 68.003906 187.351562 C 68.003906 220.257812 121.566406 246.933594 187.636719 246.933594 " fill-opacity="1" fill-rule="nonzero"/><path fill="#000000" d="M 130.777344 194.738281 C 136.210938 194.738281 140.265625 193.753906 142.832031 191.8125 C 145.371094 189.894531 147.125 186.5625 148.042969 181.921875 C 148.902344 177.582031 148.574219 174.550781 147.074219 172.917969 C 145.539062 171.246094 142.222656 170.402344 137.214844 170.402344 L 128.535156 170.402344 L 123.71875 194.738281 Z M 102.382812 224.71875 C 101.980469 224.71875 101.597656 224.542969 101.339844 224.238281 C 101.070312 223.914062 100.976562 223.550781 101.058594 223.140625 L 113.8125 158.644531 C 113.875 158.332031 114.03125 158.074219 114.28125 157.871094 C 114.53125 157.671875 114.816406 157.570312 115.140625 157.570312 L 142.632812 157.570312 C 151.273438 157.570312 157.703125 159.871094 161.746094 164.421875 C 165.808594 168.992188 167.0625 175.382812 165.476562 183.414062 C 164.828125 186.6875 163.714844 189.726562 162.167969 192.445312 C 160.621094 195.171875 158.574219 197.691406 156.085938 199.9375 C 153.105469 202.679688 149.734375 204.664062 146.074219 205.835938 C 142.46875 206.988281 137.84375 207.574219 132.316406 207.574219 L 121.1875 207.574219 L 118.007812 223.648438 C 117.945312 223.957031 117.789062 224.214844 117.539062 224.417969 C 117.289062 224.621094 117.003906 224.722656 116.679688 224.722656 L 102.378906 224.722656 Z M 102.382812 224.71875 " fill-opacity="1" fill-rule="nonzero"/><path fill="#ffffff" d="M 129.648438 171.726562 L 137.214844 171.726562 C 143.257812 171.726562 145.359375 173.03125 146.074219 173.808594 C 147.257812 175.097656 147.480469 177.816406 146.71875 181.667969 C 145.863281 185.984375 144.28125 189.042969 142.007812 190.761719 C 139.683594 192.519531 135.90625 193.410156 130.777344 193.410156 L 125.363281 193.410156 L 129.652344 171.726562 Z M 142.628906 156.238281 L 115.140625 156.238281 C 114.828125 156.238281 114.523438 156.292969 114.226562 156.394531 C 113.933594 156.5 113.664062 156.648438 113.421875 156.847656 C 113.179688 157.042969 112.976562 157.273438 112.816406 157.539062 C 112.65625 157.800781 112.546875 158.085938 112.488281 158.386719 L 99.734375 222.890625 C 99.695312 223.082031 99.679688 223.273438 99.683594 223.472656 C 99.691406 223.667969 99.71875 223.859375 99.765625 224.050781 C 99.816406 224.238281 99.886719 224.421875 99.976562 224.59375 C 100.066406 224.769531 100.171875 224.933594 100.300781 225.085938 C 100.425781 225.234375 100.570312 225.371094 100.726562 225.492188 C 100.882812 225.609375 101.050781 225.714844 101.230469 225.796875 C 101.414062 225.878906 101.601562 225.941406 101.792969 225.984375 C 101.988281 226.027344 102.183594 226.050781 102.382812 226.050781 L 116.679688 226.050781 C 116.996094 226.050781 117.300781 226 117.59375 225.894531 C 117.890625 225.789062 118.15625 225.640625 118.398438 225.445312 C 118.640625 225.246094 118.84375 225.015625 119.003906 224.753906 C 119.164062 224.488281 119.273438 224.203125 119.332031 223.902344 L 122.300781 208.902344 L 132.320312 208.902344 C 137.984375 208.902344 142.753906 208.296875 146.492188 207.097656 C 150.339844 205.871094 153.878906 203.789062 157.011719 200.910156 C 159.601562 198.570312 161.738281 195.941406 163.351562 193.097656 C 164.960938 190.253906 166.128906 187.082031 166.804688 183.671875 C 168.476562 175.21875 167.117188 168.449219 162.765625 163.550781 C 158.453125 158.703125 151.679688 156.242188 142.632812 156.242188 M 122.085938 196.070312 L 130.78125 196.070312 C 136.546875 196.070312 140.839844 195.003906 143.660156 192.867188 C 146.480469 190.734375 148.382812 187.171875 149.375 182.179688 C 150.320312 177.386719 149.886719 174.003906 148.082031 172.03125 C 146.273438 170.0625 142.648438 169.074219 137.21875 169.074219 L 127.425781 169.074219 L 122.085938 196.070312 M 142.632812 158.898438 C 150.902344 158.898438 156.9375 161.03125 160.730469 165.296875 C 164.523438 169.5625 165.664062 175.519531 164.152344 183.164062 C 163.527344 186.3125 162.476562 189.191406 160.992188 191.800781 C 159.507812 194.410156 157.570312 196.796875 155.171875 198.964844 C 152.320312 201.589844 149.148438 203.460938 145.65625 204.574219 C 142.167969 205.691406 137.722656 206.246094 132.320312 206.246094 L 120.074219 206.246094 L 116.683594 223.394531 L 102.386719 223.394531 L 115.144531 158.902344 L 142.636719 158.902344 " fill-opacity="1" fill-rule="nonzero"/><path fill="#000000" d="M 198.253906 207.570312 C 197.851562 207.570312 197.46875 207.394531 197.210938 207.089844 C 196.957031 206.78125 196.851562 206.378906 196.929688 205.992188 L 202.570312 177.453125 C 203.109375 174.738281 202.976562 172.792969 202.199219 171.96875 C 201.722656 171.464844 200.292969 170.621094 196.070312 170.621094 L 185.847656 170.621094 L 178.753906 206.496094 C 178.691406 206.808594 178.539062 207.066406 178.289062 207.269531 C 178.039062 207.46875 177.753906 207.570312 177.429688 207.570312 L 163.246094 207.570312 C 163.042969 207.570312 162.851562 207.527344 162.667969 207.445312 C 162.484375 207.359375 162.332031 207.242188 162.203125 207.085938 C 162.074219 206.933594 161.984375 206.761719 161.933594 206.570312 C 161.886719 206.378906 161.878906 206.183594 161.917969 205.988281 L 174.675781 141.492188 C 174.734375 141.183594 174.890625 140.925781 175.140625 140.722656 C 175.390625 140.519531 175.675781 140.417969 176 140.417969 L 190.183594 140.417969 C 190.386719 140.417969 190.578125 140.460938 190.761719 140.546875 C 190.941406 140.632812 191.097656 140.75 191.226562 140.902344 C 191.355469 141.054688 191.445312 141.226562 191.492188 141.421875 C 191.542969 141.613281 191.550781 141.804688 191.511719 142 L 188.433594 157.566406 L 199.429688 157.566406 C 207.808594 157.566406 213.488281 159.019531 216.796875 162.003906 C 220.175781 165.050781 221.222656 169.921875 219.925781 176.484375 L 213.992188 206.496094 C 213.929688 206.808594 213.773438 207.066406 213.523438 207.269531 C 213.273438 207.46875 212.988281 207.570312 212.664062 207.570312 Z M 198.253906 207.570312 " fill-opacity="1" fill-rule="nonzero"/><path fill="#ffffff" d="M 190.183594 139.09375 L 176 139.09375 C 175.6875 139.09375 175.382812 139.144531 175.089844 139.25 C 174.792969 139.351562 174.523438 139.503906 174.28125 139.699219 C 174.039062 139.894531 173.839844 140.125 173.679688 140.390625 C 173.519531 140.65625 173.410156 140.9375 173.347656 141.242188 L 160.59375 205.738281 C 160.554688 205.929688 160.539062 206.125 160.542969 206.320312 C 160.550781 206.515625 160.578125 206.707031 160.625 206.898438 C 160.675781 207.085938 160.746094 207.269531 160.835938 207.445312 C 160.925781 207.617188 161.035156 207.78125 161.160156 207.933594 C 161.289062 208.082031 161.429688 208.21875 161.585938 208.339844 C 161.742188 208.460938 161.914062 208.5625 162.09375 208.644531 C 162.273438 208.726562 162.460938 208.792969 162.65625 208.835938 C 162.847656 208.878906 163.046875 208.898438 163.246094 208.898438 L 177.429688 208.898438 C 177.742188 208.898438 178.046875 208.847656 178.34375 208.742188 C 178.636719 208.636719 178.90625 208.488281 179.148438 208.292969 C 179.390625 208.097656 179.589844 207.867188 179.75 207.601562 C 179.910156 207.335938 180.023438 207.050781 180.082031 206.75 L 186.964844 171.949219 L 196.074219 171.949219 C 200.289062 171.949219 201.171875 172.832031 201.210938 172.871094 C 201.464844 173.140625 201.800781 174.394531 201.246094 177.199219 L 195.605469 205.738281 C 195.566406 205.929688 195.550781 206.125 195.554688 206.320312 C 195.5625 206.515625 195.589844 206.707031 195.636719 206.898438 C 195.6875 207.085938 195.757812 207.269531 195.847656 207.445312 C 195.9375 207.617188 196.046875 207.78125 196.171875 207.933594 C 196.296875 208.082031 196.441406 208.21875 196.597656 208.339844 C 196.753906 208.460938 196.921875 208.5625 197.105469 208.644531 C 197.285156 208.726562 197.472656 208.792969 197.664062 208.835938 C 197.859375 208.878906 198.058594 208.898438 198.257812 208.898438 L 212.664062 208.898438 C 212.980469 208.898438 213.285156 208.847656 213.578125 208.742188 C 213.875 208.636719 214.140625 208.488281 214.382812 208.292969 C 214.625 208.097656 214.828125 207.867188 214.988281 207.601562 C 215.148438 207.335938 215.257812 207.050781 215.316406 206.75 L 221.253906 176.738281 C 222.644531 169.691406 221.453125 164.40625 217.714844 161.027344 C 214.144531 157.804688 208.164062 156.238281 199.433594 156.238281 L 190.074219 156.238281 L 192.839844 142.253906 C 192.878906 142.0625 192.894531 141.867188 192.886719 141.671875 C 192.882812 141.476562 192.855469 141.28125 192.804688 141.09375 C 192.757812 140.902344 192.6875 140.722656 192.597656 140.546875 C 192.507812 140.371094 192.398438 140.210938 192.273438 140.058594 C 192.144531 139.90625 192.003906 139.769531 191.84375 139.652344 C 191.6875 139.53125 191.519531 139.429688 191.339844 139.34375 C 191.160156 139.261719 190.972656 139.199219 190.777344 139.15625 C 190.582031 139.113281 190.386719 139.09375 190.1875 139.09375 M 190.1875 141.746094 L 186.796875 158.894531 L 199.433594 158.894531 C 207.382812 158.894531 212.867188 160.257812 215.886719 162.980469 C 218.90625 165.707031 219.808594 170.125 218.601562 176.230469 L 212.667969 206.242188 L 198.257812 206.242188 L 203.898438 177.707031 C 204.542969 174.460938 204.304688 172.246094 203.191406 171.066406 C 202.078125 169.882812 199.703125 169.292969 196.074219 169.292969 L 184.734375 169.292969 L 177.429688 206.242188 L 163.246094 206.242188 L 176 141.746094 L 190.183594 141.746094 " fill-opacity="1" fill-rule="nonzero"/><path fill="#000000" d="M 242.371094 194.738281 C 247.800781 194.738281 251.859375 193.753906 254.425781 191.8125 C 256.960938 189.894531 258.714844 186.566406 259.636719 181.921875 C 260.492188 177.582031 260.167969 174.550781 258.664062 172.917969 C 257.132812 171.246094 253.8125 170.402344 248.808594 170.402344 L 240.125 170.402344 L 235.3125 194.738281 Z M 213.972656 224.71875 C 213.570312 224.71875 213.1875 224.542969 212.929688 224.234375 C 212.660156 223.914062 212.566406 223.546875 212.648438 223.136719 L 225.402344 158.640625 C 225.464844 158.328125 225.621094 158.074219 225.871094 157.871094 C 226.121094 157.667969 226.40625 157.566406 226.730469 157.566406 L 254.222656 157.566406 C 262.863281 157.566406 269.292969 159.867188 273.335938 164.421875 C 277.398438 168.992188 278.652344 175.382812 277.066406 183.414062 C 276.417969 186.683594 275.304688 189.722656 273.757812 192.445312 C 272.210938 195.167969 270.164062 197.6875 267.675781 199.9375 C 264.695312 202.675781 261.324219 204.664062 257.664062 205.832031 C 254.058594 206.988281 249.429688 207.570312 243.90625 207.570312 L 232.765625 207.570312 L 229.589844 223.644531 C 229.527344 223.957031 229.371094 224.214844 229.121094 224.417969 C 228.871094 224.617188 228.585938 224.71875 228.261719 224.71875 L 213.964844 224.71875 Z M 213.972656 224.71875 " fill-opacity="1" fill-rule="nonzero"/><path fill="#ffffff" d="M 241.238281 171.726562 L 248.808594 171.726562 C 254.851562 171.726562 256.949219 173.03125 257.664062 173.808594 C 258.847656 175.097656 259.070312 177.816406 258.308594 181.667969 C 257.457031 185.984375 255.871094 189.042969 253.601562 190.761719 C 251.277344 192.519531 247.496094 193.410156 242.371094 193.410156 L 236.953125 193.410156 Z M 254.222656 156.238281 L 226.730469 156.238281 C 226.414062 156.238281 226.113281 156.292969 225.816406 156.394531 C 225.519531 156.5 225.253906 156.648438 225.011719 156.847656 C 224.769531 157.042969 224.566406 157.273438 224.40625 157.539062 C 224.246094 157.800781 224.136719 158.085938 224.078125 158.386719 L 211.320312 222.890625 C 211.28125 223.082031 211.265625 223.273438 211.273438 223.472656 C 211.277344 223.667969 211.304688 223.859375 211.355469 224.050781 C 211.402344 224.238281 211.472656 224.421875 211.5625 224.59375 C 211.652344 224.769531 211.761719 224.933594 211.886719 225.085938 C 212.015625 225.234375 212.15625 225.371094 212.3125 225.492188 C 212.472656 225.609375 212.640625 225.714844 212.820312 225.796875 C 213 225.878906 213.1875 225.941406 213.382812 225.984375 C 213.578125 226.027344 213.773438 226.050781 213.972656 226.050781 L 228.269531 226.050781 C 228.582031 226.050781 228.886719 226 229.183594 225.894531 C 229.476562 225.789062 229.746094 225.640625 229.988281 225.445312 C 230.230469 225.246094 230.429688 225.015625 230.589844 224.753906 C 230.75 224.488281 230.863281 224.203125 230.921875 223.902344 L 233.886719 208.902344 L 243.90625 208.902344 C 249.570312 208.902344 254.339844 208.296875 258.082031 207.097656 C 261.925781 205.871094 265.464844 203.789062 268.597656 200.910156 C 271.1875 198.570312 273.320312 195.941406 274.9375 193.097656 C 276.554688 190.253906 277.714844 187.082031 278.390625 183.671875 C 280.0625 175.214844 278.703125 168.445312 274.351562 163.550781 C 270.042969 158.703125 263.269531 156.242188 254.222656 156.242188 M 233.671875 196.070312 L 242.371094 196.070312 C 248.132812 196.070312 252.425781 195.003906 255.246094 192.867188 C 258.066406 190.734375 259.972656 187.171875 260.960938 182.179688 C 261.90625 177.386719 261.476562 174.003906 259.667969 172.03125 C 257.859375 170.0625 254.238281 169.074219 248.808594 169.074219 L 239.011719 169.074219 L 233.671875 196.070312 M 254.222656 158.898438 C 262.492188 158.898438 268.523438 161.03125 272.316406 165.296875 C 276.109375 169.5625 277.25 175.519531 275.738281 183.164062 C 275.117188 186.3125 274.0625 189.191406 272.578125 191.800781 C 271.097656 194.410156 269.15625 196.796875 266.761719 198.964844 C 263.90625 201.589844 260.734375 203.460938 257.246094 204.574219 C 253.753906 205.691406 249.3125 206.246094 243.90625 206.246094 L 231.660156 206.246094 L 228.269531 223.394531 L 213.972656 223.394531 L 226.730469 158.898438 L 254.222656 158.898438 " fill-opacity="1" fill-rule="nonzero"/></svg>