<svg xmlns="http://www.w3.org/2000/svg" xmlns:xlink="http://www.w3.org/1999/xlink" width="500" zoomAndPan="magnify" viewBox="0 0 375 374.999991" height="500" preserveAspectRatio="xMidYMid meet" version="1.0"><defs><g/></defs><g fill="#000000" fill-opacity="1"><g transform="translate(127.550968, 246.053787)"><g><path d="M 9.933594 0.445312 C 14.550781 0.445312 18.371094 -1.878906 18.371094 -6.6875 C 18.371094 -11.683594 14.105469 -12.734375 10.730469 -13.59375 C 8.339844 -14.167969 6.429688 -14.644531 6.429688 -16.207031 C 6.429688 -17.667969 7.992188 -18.339844 9.550781 -18.339844 C 11.367188 -18.339844 12.957031 -17.445312 12.957031 -15.503906 L 17.703125 -15.503906 C 17.703125 -19.960938 14.804688 -22.699219 9.679688 -22.699219 C 4.742188 -22.699219 1.59375 -20.28125 1.59375 -16.015625 C 1.59375 -11.207031 5.667969 -10.21875 9.042969 -9.390625 C 11.460938 -8.851562 13.5 -8.375 13.5 -6.621094 C 13.5 -4.964844 11.714844 -4.011719 9.902344 -4.011719 C 7.925781 -4.011719 6.144531 -5.0625 6.144531 -7.195312 L 1.273438 -7.195312 C 1.273438 -2.417969 4.808594 0.445312 9.933594 0.445312 Z M 9.933594 0.445312 "/></g></g></g><g fill="#000000" fill-opacity="1"><g transform="translate(147.252601, 246.053787)"><g><path d="M 12.066406 -17.574219 C 9.996094 -17.574219 8.183594 -16.808594 6.875 -15.570312 L 6.875 -23.367188 L 2.230469 -23.367188 L 2.230469 0 L 6.875 0 L 6.875 -9.011719 C 6.875 -11.8125 8.40625 -13.5 10.730469 -13.5 C 12.796875 -13.5 13.722656 -12.226562 13.722656 -9.648438 L 13.722656 0 L 18.371094 0 L 18.371094 -10.441406 C 18.371094 -14.804688 15.949219 -17.574219 12.066406 -17.574219 Z M 12.066406 -17.574219 "/></g></g></g><g fill="#000000" fill-opacity="1"><g transform="translate(167.654451, 246.053787)"><g><path d="M 16.238281 -17.191406 L 15.757812 -15.570312 C 14.261719 -16.875 12.320312 -17.667969 10.09375 -17.667969 C 4.933594 -17.667969 1.082031 -13.785156 1.082031 -8.597656 C 1.082031 -3.40625 4.933594 0.507812 10.09375 0.507812 C 12.289062 0.507812 14.199219 -0.253906 15.664062 -1.558594 L 16.078125 0 L 19.707031 0 L 19.707031 -17.191406 Z M 10.472656 -3.882812 C 7.769531 -3.882812 5.792969 -5.921875 5.792969 -8.597656 C 5.792969 -11.300781 7.769531 -13.308594 10.472656 -13.308594 C 13.179688 -13.308594 15.15625 -11.300781 15.15625 -8.597656 C 15.15625 -5.890625 13.179688 -3.882812 10.472656 -3.882812 Z M 10.472656 -3.882812 "/></g></g></g><g fill="#000000" fill-opacity="1"><g transform="translate(189.615879, 246.053787)"><g><path d="M 11.015625 -17.289062 C 8.789062 -17.289062 7.257812 -16.585938 6.015625 -15.058594 L 5.191406 -17.191406 L 2.230469 -17.191406 L 2.230469 0 L 6.875 0 L 6.875 -8.914062 C 6.875 -11.714844 7.894531 -12.894531 10.507812 -12.894531 L 12.542969 -12.894531 L 12.542969 -17.289062 Z M 11.015625 -17.289062 "/></g></g></g><g fill="#000000" fill-opacity="1"><g transform="translate(202.569937, 246.053787)"><g><path d="M 18.910156 -8.628906 C 18.910156 -13.59375 15.28125 -17.667969 9.996094 -17.667969 C 4.902344 -17.667969 1.082031 -13.753906 1.082031 -8.597656 C 1.082031 -3.4375 4.933594 0.507812 9.996094 0.507812 C 14.007812 0.507812 17.289062 -1.878906 18.53125 -5.636719 L 13.660156 -5.636719 C 12.957031 -4.394531 11.621094 -3.628906 9.996094 -3.628906 C 7.738281 -3.628906 6.207031 -4.933594 5.792969 -7.289062 L 18.816406 -7.289062 C 18.878906 -7.738281 18.910156 -8.183594 18.910156 -8.628906 Z M 9.996094 -13.691406 C 12.097656 -13.691406 13.59375 -12.542969 14.261719 -10.441406 L 5.921875 -10.441406 C 6.464844 -12.480469 7.925781 -13.691406 9.996094 -13.691406 Z M 9.996094 -13.691406 "/></g></g></g><g fill="#000000" fill-opacity="1"><g transform="translate(222.558026, 246.053787)"><g><path d="M 1.910156 -13.882812 L 6.207031 -13.882812 L 6.207031 -22.351562 L 1.910156 -22.351562 Z M 1.910156 -13.882812 "/></g></g></g><g fill="#000000" fill-opacity="1"><g transform="translate(230.737862, 246.053787)"><g><path d="M 8.308594 0.507812 C 12.671875 0.507812 15.535156 -1.78125 15.535156 -5.285156 C 15.535156 -9.488281 11.9375 -10.0625 9.136719 -10.570312 C 7.355469 -10.886719 5.890625 -11.175781 5.890625 -12.320312 C 5.890625 -13.308594 6.75 -13.945312 8.183594 -13.945312 C 9.804688 -13.945312 10.761719 -13.277344 10.792969 -11.90625 L 15.21875 -11.90625 C 15.1875 -15.34375 12.449219 -17.667969 8.308594 -17.667969 C 4.171875 -17.667969 1.402344 -15.410156 1.402344 -12.160156 C 1.402344 -8.117188 4.902344 -7.386719 7.640625 -6.910156 C 9.457031 -6.621094 10.953125 -6.273438 10.953125 -5.09375 C 10.953125 -3.949219 9.773438 -3.34375 8.5 -3.34375 C 6.84375 -3.34375 5.667969 -4.105469 5.636719 -5.636719 L 1.113281 -5.636719 C 1.113281 -1.972656 4.011719 0.507812 8.308594 0.507812 Z M 8.308594 0.507812 "/></g></g></g></svg>